<svg width="300" height="271" viewBox="0 0 300 271" fill="none" xmlns="http://www.w3.org/2000/svg">
<path d="M290.65 118.468L300 111.804L289.058 108.322L275.133 103.946C274.436 103.747 257.626 98.4748 234.549 93.9987L224.005 51.4257L223.309 48.4416L220.424 47.3475L165.716 27.6525C166.81 27.4536 168.203 27.2546 168.203 27.2546L180.438 25.2652L171.088 17.2082L154.973 3.28249L151.194 0L147.414 3.18302L131.101 17.1088L121.552 25.2652L133.886 27.2546L135.776 27.553L80.8687 47.3475L77.9841 48.4416L77.2878 51.4257L70.5239 78.6804C70.5239 78.6804 68.0371 88.6273 66.6446 94.0981C54.9072 96.3859 42.0756 99.4695 28.2493 103.249L15.5172 106.731L5.47082 109.516L13.13 116.578L24.9668 127.42L0 133.985L19.1976 151.89L7.55968 199.038C7.55968 199.038 43.6671 188.097 57.0955 184.615C57.5928 186.107 58.0902 187.599 58.5875 188.992C67.0424 211.074 89.2241 242.805 146.718 268.369L148.309 269.065L150.696 270.06L153.084 269.065L154.675 268.369C212.168 242.904 234.35 211.074 242.805 188.992C243.402 187.5 243.899 186.107 244.397 184.615C257.427 187.798 283.19 195.955 296.717 200.232L277.321 128.316L290.65 118.468Z" fill="#ADB7C0"/>
<path d="M270.557 125.829L287.268 113.793L273.342 109.417C272.447 109.118 254.244 103.448 229.775 98.9723C224.304 76.5916 218.336 52.719 218.336 52.719L158.953 31.333L158.455 24.6686C158.455 24.2707 158.256 23.8728 158.157 23.3755C159.45 22.8781 161.141 22.3808 163.13 22.0824L167.109 21.4855L151.194 7.55981L134.881 21.4855L138.959 22.0824C140.949 22.3808 142.64 22.8781 143.933 23.3755C143.833 24.5691 143.236 30.8357 143.236 30.8357L82.8583 52.719L76.0944 79.9736L71.3199 98.9723C61.7708 100.763 47.8451 103.846 29.8411 108.72L17.109 112.202L31.731 125.63L30.1395 131.897L11.6382 136.771L25.7629 149.901L19.4963 175.265L18.9989 177.354L15.8159 190.285C15.8159 190.285 51.0281 179.543 61.2735 177.354C62.0692 180.338 62.9644 183.322 64.1581 186.605C72.2151 207.692 93.5016 238.031 149.204 262.799L150.796 263.495L152.388 262.799C208.09 238.13 229.377 207.792 237.434 186.605C238.628 183.422 239.622 180.338 240.319 177.454C261.705 182.228 288.064 190.982 288.064 190.982C287.865 191.18 271.552 129.808 270.557 125.829Z" fill="#132048"/>
<path d="M162.135 162.931C163.926 162.931 165.716 163.03 167.507 163.13L166.313 151.194H161.141L162.135 162.931Z" fill="white"/>
<path d="M166.711 222.911L150.696 251.26L173.873 224.801L169.894 185.61C167.905 185.511 165.915 185.511 163.926 185.411L166.711 222.911Z" fill="white"/>
<path d="M150.696 251.26L166.711 222.911L163.826 185.411C159.549 185.312 155.172 185.212 150.895 185.212L150.696 251.26Z" fill="#ADB7C0"/>
<path d="M150.896 162.732C154.675 162.732 158.356 162.832 162.036 162.931L161.141 151.194H150.896V162.732Z" fill="#ADB7C0"/>
<path d="M156.664 92.0092C158.057 92.0092 159.25 92.0092 160.345 92.1086L158.156 70.3248H155.073L156.664 92.0092Z" fill="white"/>
<path d="M151.194 70.3248L151.094 92.1086C153.183 92.1086 155.073 92.1086 156.565 92.1086L154.874 70.3248H151.194V70.3248Z" fill="#ADB7C0"/>
<path d="M149.006 31.2334L149.205 31.3328L149.304 31.4323L154.974 34.7148C155.173 34.8143 155.372 34.8143 155.471 34.9137C155.372 33.5212 155.272 32.427 155.272 32.427C155.272 31.8302 154.178 30.6366 152.885 30.1392L152.587 30.0397L152.388 29.8408L147.812 26.5583C147.613 26.4588 147.514 26.4588 147.315 26.3594C147.215 27.8514 147.116 29.1445 147.116 29.1445C147.116 29.7413 147.911 30.8355 149.006 31.2334Z" fill="#F58220"/>
<path d="M148.409 39.0915H148.508L148.608 39.191L155.471 42.573C155.67 42.6724 155.969 42.7719 156.167 42.8714C156.068 41.4788 155.969 40.3846 155.969 40.3846C155.969 39.8873 154.974 38.5942 153.482 38.0968L153.283 37.9974L153.084 37.8979L147.315 34.5159C147.116 34.4165 146.817 34.317 146.618 34.2175L146.419 37.1021C146.419 37.5995 147.116 38.6937 148.409 39.0915Z" fill="#F58220"/>
<path d="M147.414 46.9496C147.613 47.0491 147.712 47.0491 147.911 47.1485L155.869 50.5305L155.67 50.431C156.068 50.5305 156.366 50.7294 156.764 50.8289C156.664 49.4363 156.565 48.3422 156.565 48.3422C156.565 47.9443 155.968 47.1485 155.073 46.5517C154.774 46.3528 154.377 46.1538 154.078 46.0544H153.979L153.879 45.9549L147.016 42.5729L147.215 42.6724C146.817 42.5729 146.519 42.374 146.121 42.175L145.822 45.0597C145.723 45.4575 146.32 46.3528 147.414 46.9496Z" fill="#F58220"/>
<path d="M157.162 56.2997C157.162 56.2002 157.162 56.2002 157.162 56.2997C156.963 55.7029 155.968 54.5093 154.476 54.1114H154.377H154.277C154.277 54.1114 146.32 50.7294 146.419 50.8289C146.121 50.7294 145.723 50.5305 145.425 50.431C145.325 50.431 145.325 50.3315 145.226 50.3315L144.927 53.3156C144.927 53.614 145.624 54.8077 147.116 55.305C147.116 55.305 150.796 56.6976 153.482 57.6923H157.162C157.261 56.6976 157.162 56.2997 157.162 56.2997Z" fill="#F58220"/>
<path d="M93.2026 170.988L79.6748 172.978L78.5806 178.846L75.4971 179.344L78.0833 181.333L77.188 185.909L89.7212 184.019C93.1032 183.521 94.8936 182.427 95.192 180.736L95.4904 179.443C95.6894 178.548 95.2915 177.951 94.3963 177.653C95.2915 177.155 95.8883 176.459 96.0873 175.663L96.6841 172.779C97.0819 170.69 94.8936 170.69 93.2026 170.988ZM91.1138 179.94L90.9148 180.736C90.8154 181.134 90.8154 181.233 89.7212 181.432L82.261 182.527L82.5594 180.736L90.0196 179.642C91.2132 179.443 91.2132 179.543 91.1138 179.94ZM92.2079 173.972L91.7106 176.558C91.7106 176.757 91.6111 176.857 90.6164 177.056L83.1562 178.15L83.753 174.967L91.2132 173.873C92.2079 173.674 92.2079 173.773 92.2079 173.972ZM115.086 168.899L114.887 168.7L110.809 168.999L110.61 169.198L104.542 177.354L102.155 177.553L103.647 178.647L101.26 181.83L100.663 182.527L105.537 182.129L105.736 181.93L107.526 179.741L116.478 178.946L117.971 180.836L118.169 181.035L123.441 180.637L122.944 180.04L115.086 168.899ZM109.516 176.857L112.5 172.082L114.887 176.459L109.516 176.857ZM168.402 167.606L157.261 167.308C154.476 167.208 152.984 167.606 152.984 169.993L153.083 176.857C153.183 179.244 154.675 179.741 157.46 179.841L168.601 180.139C171.386 180.239 172.878 179.841 172.878 177.454L172.778 170.59C172.778 168.104 171.187 167.706 168.402 167.606ZM157.858 177.155L157.758 169.993L168.203 170.292L168.302 177.454L157.858 177.155ZM226.193 181.93C226.193 181.83 226.094 181.631 226.094 181.532L228.879 179.443L222.513 178.548C222.215 178.448 221.817 178.448 221.419 178.349L212.566 177.056L212.168 174.171L225.199 176.061C224.801 173.773 223.11 173.077 220.424 172.779L211.87 171.585C209.085 171.187 207.593 171.386 207.99 173.873L208.886 179.443L222.016 181.333L222.215 182.825L208.488 180.836C208.886 183.223 210.577 183.919 213.262 184.317L222.612 185.71C225.398 186.107 226.89 185.909 226.492 183.422L226.193 181.93ZM141.445 176.061H141.644C143.335 175.962 145.623 175.663 145.822 173.475L146.021 169.596C146.22 167.407 143.932 167.308 142.241 167.308L128.713 167.805L128.315 174.072L125.431 174.171L128.116 176.26L127.818 180.438L132.394 180.239L132.692 176.359L135.278 176.26L140.948 179.741L141.147 179.841L148.11 179.543L146.817 178.846L141.445 176.061ZM141.346 170.391L141.246 173.077C141.246 173.375 141.246 173.475 140.252 173.475L132.891 173.773L132.99 170.292L140.351 169.993C141.445 169.993 141.445 170.093 141.346 170.391ZM194.761 169.496L195.159 176.857C195.159 177.056 195.159 177.255 195.258 177.553C195.059 177.354 194.761 177.255 194.562 177.056L183.521 168.501L183.322 168.402L180.139 168.104L180.835 180.736L185.112 181.134L184.715 173.674C184.715 173.574 184.715 173.375 184.615 173.077C184.715 173.077 184.715 173.176 184.814 173.176L196.352 182.029L196.551 182.129L199.734 182.427L199.038 169.794L194.761 169.496Z" fill="#F58220"/>
<path d="M76.7901 139.854L59.6814 143.335L59.184 143.435L59.0846 143.932L56.001 160.046L55.8021 161.141L56.8962 160.942L74.6018 157.46L75.0992 157.361L75.1986 156.863L77.5859 140.749L77.7848 139.655L76.7901 139.854ZM80.371 115.782L64.4559 118.667L63.9586 118.766L63.8591 119.264L61.2729 132.195L61.074 133.289L62.1681 133.09L78.7795 129.907L79.2769 129.808L79.3763 129.31L81.2663 116.678L81.4652 115.583L80.371 115.782ZM102.553 106.532C103.945 107.825 104.642 109.516 104.443 111.505L103.846 119.264C103.448 122.745 100.464 126.525 95.5899 129.708L94.0978 130.703L95.8883 131.101C100.066 132.095 102.354 134.582 101.956 137.865C100.762 149.304 100.762 150.199 100.663 150.298V150.199C100.066 156.167 91.6111 163.926 81.2663 165.418C80.9678 165.517 49.8339 170.59 26.8564 178.15L27.0554 177.354L34.4161 147.812L34.5156 147.414L34.2172 147.115L27.7517 141.048L36.306 138.76L36.7039 138.66L36.8034 138.263L40.4838 123.541L40.5832 123.143L40.2848 122.845L33.2225 116.379C67.9373 106.93 87.2344 104.741 87.4334 104.741H87.5328C87.5328 104.741 87.6323 104.741 87.5328 104.741C93.9984 103.249 99.6681 103.946 102.553 106.532Z" fill="white"/>
<path d="M182.427 110.312C181.929 104.443 173.574 100.066 163.428 100.265C163.229 100.265 148.309 99.5689 117.771 101.16L114.29 161.538L139.854 160.146L140.252 143.733V142.938H141.047H166.71C173.275 142.938 179.045 140.948 182.128 137.666C183.62 136.074 184.317 134.184 184.217 132.294C184.018 132.394 182.427 110.312 182.427 110.312ZM159.151 134.085H141.147H140.351V133.289L140.749 111.008V110.312H141.445L158.156 110.013H158.952V110.809L159.748 133.389V134.184H159.151V134.085Z" fill="white"/>
<path d="M269.661 151.591L243.7 145.424C243.799 145.822 243.899 146.22 243.899 146.22L246.684 160.842L246.883 161.936L245.789 161.737L226.889 158.256L226.392 158.156L226.293 157.659L218.832 115.981L218.633 114.887L219.728 115.086L236.538 118.567L237.035 118.667L237.135 119.164L239.82 130.902L240.019 131.697L265.484 137.765L265.285 136.969L261.704 123.143L261.604 122.646L262.002 122.347L269.661 116.777C263.594 114.987 239.721 108.123 211.87 104.343C204.807 102.652 198.74 103.05 195.656 105.338C194.164 106.432 193.468 107.924 193.667 109.715C193.667 109.715 198.74 150.398 198.74 150.497C199.436 156.266 208.488 162.831 219.429 165.418C249.568 170.69 271.153 177.254 276.525 178.945C275.132 173.375 270.059 152.487 270.059 152.487L269.661 151.591Z" fill="white"/>
<path d="M76.7901 162.832C56.4984 165.915 42.7716 169.894 34.5156 172.182L46.253 120.557L33.4214 116.379L40.2848 122.646L40.5832 122.944L40.4838 123.342L36.8034 138.064L36.7039 138.461L36.306 138.561L27.7517 140.849L34.2172 146.916L34.5156 147.215L34.4161 147.613L27.0554 177.155L26.8564 177.951C49.8339 170.391 80.8684 165.318 81.2663 165.219C91.6111 163.727 100.066 155.968 100.663 150V150.099C100.663 150.099 100.663 149.9 100.762 149.204C98.9718 152.586 92.9042 160.444 76.7901 162.832Z" fill="#F58220"/>
<path d="M63.859 119.264L63.9585 118.767L64.4558 118.667L80.3709 115.782L81.3656 115.584L81.2662 116.678L79.3762 129.31L79.2768 129.808H79.1773L81.9624 133.289L85.6428 111.704L55.603 117.473L63.859 119.264Z" fill="#F58220"/>
<path d="M59.0846 143.733L59.1841 143.435L59.6814 143.335L76.7902 139.854L77.7849 139.655L77.6854 140.749L75.1987 156.863V157.361L78.3817 160.245L82.1615 135.079L54.3101 140.948L59.0846 143.733Z" fill="#F58220"/>
<path d="M119.661 157.062L122.248 105.736L117.771 101.16L114.29 161.538L139.754 160.245L135.477 156.167L119.661 157.062Z" fill="#F58220"/>
<path d="M140.848 110.312H141.544L158.255 109.914H159.051V110.709L159.847 133.289V133.786L164.621 136.273L163.229 105.537L135.676 105.935L140.848 110.411V110.312Z" fill="#F58220"/>
<path d="M193.468 109.615C193.468 109.615 198.541 150.298 198.541 150.398C199.237 156.167 208.289 162.732 219.23 165.318C248.474 170.491 269.562 176.757 275.829 178.647L269.065 173.077C254.443 168.203 224.502 162.334 224.502 162.334C207.394 159.052 205.603 150.497 205.603 150.497L200.132 111.804C199.237 103.647 205.603 103.349 206.896 103.349C206.001 103.249 205.205 103.15 204.31 103.15C204.31 103.15 204.31 103.15 204.211 103.15C200.431 103.05 197.347 103.747 195.457 105.239C193.965 106.333 193.269 107.825 193.468 109.615Z" fill="#F58220"/>
<path d="M244.197 127.918L241.511 116.081L212.864 109.814L218.534 114.887V114.688L219.628 114.987L236.339 118.369L236.836 118.468L236.936 118.965L239.622 130.802L239.82 131.499L260.112 136.373L265.185 137.467L265.086 136.87V136.77L257.626 131.001L244.197 127.918Z" fill="#F58220"/>
<path d="M249.668 150.696L244.197 145.524L243.7 145.424C243.799 145.822 243.899 146.22 243.899 146.22L246.684 160.842L246.783 161.538L252.453 165.119L249.668 150.696Z" fill="#F58220"/>
<path d="M81.6646 190.683C95.8887 188.395 110.511 186.804 125.531 186.008L121.353 222.215C102.454 211.572 89.9205 200.729 81.6646 190.683Z" fill="#F58220"/>
<path d="M89.3238 58.5878L142.54 39.3901L142.043 44.861L141.346 52.8185C141.247 54.5095 142.242 56.3 143.833 57.4936H118.17L117.175 59.7814L113.097 69.032L108.521 79.2774V88.4286L118.369 83.0572L124.337 79.7748H137.666L136.174 92.5068C130.504 92.7058 124.039 92.9047 116.578 93.4021L110.113 93.8L109.715 100.265L109.616 102.553C109.118 101.956 108.621 101.36 108.024 100.763C103.25 96.3862 95.292 94.9936 86.2403 96.784C85.4445 96.8835 83.2562 97.1819 79.6753 97.6793C83.9525 80.3716 87.9313 64.0586 89.3238 58.5878Z" fill="#F58220"/>
<path d="M76.4922 195.756C87.8317 209.582 104.443 222.115 126.227 233.256L141.943 251.26C105.736 233.256 86.4391 213.362 76.4922 195.756Z" fill="#F58220"/>
<path d="M159.549 251.061L175.364 233.057C197.347 221.817 213.959 209.085 225.099 195.159C215.252 212.765 196.054 232.957 159.549 251.061Z" fill="#F58220"/>
<path d="M114.788 76.5916V80.1725L126.028 74.3038L126.227 74.2043H126.326H138.959L139.556 70.7229H125.033L114.788 76.5916Z" fill="#F58220"/>
<path d="M176.558 70.7229H162.135L162.732 74.2043H175.265H175.464L175.564 74.3038L186.903 80.1725V76.5916L176.558 70.7229Z" fill="#F58220"/>
<path d="M120.955 61.8699L117.772 69.0317L123.044 66.1471L123.143 66.0476H123.342H178.946H179.145L179.344 66.1471L184.516 69.0317L181.333 61.8699H120.955Z" fill="#ADB7C0"/>
<path d="M151.194 12.6326L158.753 19.297C158.753 19.297 154.078 20.3912 151.094 23.7732L151.194 12.6326Z" fill="#ADB7C0"/>
</svg>
