<svg width="250" height="162" viewBox="0 0 250 162" fill="none" xmlns="http://www.w3.org/2000/svg">
<g clip-path="url(#clip0_2410_44905)">
<path d="M96.3428 160.823C96.2959 160.823 96.249 160.823 96.2021 160.815C95.6395 160.744 95.2019 160.281 95.1707 159.716L94.1939 142.916C93.6235 133.076 76.4015 129.443 75.0262 129.176C57.7105 127.779 46.3255 125.747 41.1839 123.134L39.3398 123.409L32.0963 124.735C28.2362 125.441 24.3214 126.202 20.4535 127.01L2.59073 130.722C2.51259 130.738 2.43445 130.746 2.35631 130.746C2.04375 130.746 1.73901 130.62 1.5124 130.385C1.2311 130.094 1.1217 129.678 1.21547 129.294L5.4819 111.481C6.97437 105.235 8.52935 98.9341 10.0921 92.735C10.0921 92.735 8.70125 92.7899 8.68563 92.7899C8.334 92.7899 7.998 92.633 7.77139 92.3505C7.53697 92.0602 7.45883 91.6757 7.54479 91.3147L11.4127 76.1858C12.1707 73.2118 12.9521 70.1908 13.7413 67.1932L15.7729 59.4405C15.8901 58.9932 16.2574 58.6558 16.7184 58.5773L21.6412 57.7691C27.4782 56.8039 39.2695 55.415 55.3819 54.2693C48.4119 48.8706 40.5354 47.1443 40.4494 47.1286C39.9181 47.0188 39.5352 46.5558 39.5196 46.0143C39.5039 45.4729 39.8556 44.9864 40.3791 44.8452C42.106 44.3665 44.0204 44.1311 46.2318 44.1311C50.8967 44.1311 56.1711 45.214 61.2658 46.2576C65.3604 47.0972 69.5799 47.9604 73.4166 48.2507C73.5494 47.9682 73.5181 47.7407 73.4634 47.5367C72.5961 44.3194 61.9535 39.831 55.4522 37.7672C54.96 37.6103 54.624 37.1395 54.6318 36.6216C54.6396 36.0958 54.9912 35.6485 55.4913 35.5073C56.6009 35.2013 60.6407 34.3773 64.0632 34.1262C64.5086 34.0949 65.0556 34.0792 65.6885 34.0792C67.0794 34.0792 68.6422 34.1576 69.6815 34.2126C70.1816 29.3553 72.2679 28.5628 72.7133 28.4451C72.8071 28.4215 72.9087 28.4058 73.0102 28.4058C73.229 28.4058 73.4478 28.4686 73.6354 28.5863C73.9088 28.7589 74.0964 29.0336 74.1589 29.3553C75.667 36.9982 89.0133 37.4533 89.1461 37.4612C89.654 37.4769 90.2166 37.524 90.8183 37.5789C91.6309 37.6495 92.4748 37.7201 93.35 37.7201C93.8735 37.7201 94.3502 37.6966 94.8034 37.6417C93.0218 36.2528 91.2012 34.3616 89.3649 31.9919C82.1057 22.6226 85.6532 17.2004 85.8017 16.9728C86.0205 16.6511 86.3878 16.4628 86.7706 16.4628C86.8488 16.4628 86.9269 16.4628 87.0051 16.4863C87.4661 16.5805 87.8255 16.9414 87.9193 17.4044C88.0052 17.8125 90.1932 27.4328 104.305 29.269C105.946 29.4809 107.439 29.5907 108.869 29.5907C110.775 29.5907 112.354 29.4102 114.026 29.2141C115.925 28.9943 117.894 28.7668 120.543 28.7668C121.207 28.7668 121.91 28.7825 122.668 28.8139C127.427 29.0179 131.709 29.7084 135.389 30.8462C135.436 30.8384 135.491 30.8305 135.538 30.8227C132.607 27.3857 132.287 22.8031 132.271 22.5755C132.24 22.1126 132.49 21.681 132.897 21.4613C133.068 21.3671 133.256 21.3279 133.443 21.3279C133.701 21.3279 133.951 21.4142 134.162 21.579C135.702 22.7874 140.718 23.7918 145.25 24.4117C143.398 22.5442 142.172 19.6486 142 19.2328C141.789 18.7227 141.969 18.1342 142.422 17.8203C142.625 17.6791 142.852 17.6084 143.086 17.6084C143.375 17.6084 143.664 17.7183 143.891 17.9302C144.664 18.6521 146.43 18.6599 147.72 18.6678C148.048 18.6678 148.36 18.6678 148.634 18.6835C152.111 18.8247 154.455 19.2249 155.948 19.5937C153.58 6.80321 165.489 1.37313 165.621 1.3182C165.77 1.24757 165.934 1.21619 166.09 1.21619C166.387 1.21619 166.676 1.32604 166.903 1.54576C167.247 1.87533 167.356 2.37753 167.184 2.82481C165.606 6.91306 165.598 10.5305 167.169 13.583C170.154 19.3818 177.921 21.3985 177.999 21.422C190.626 24.1135 198.073 27.7624 200.104 32.2508C200.589 33.3337 200.675 34.2675 200.612 34.9816C213.341 37.8378 213.951 46.1948 213.966 46.5636C214.256 49.8044 213.255 52.9353 210.982 55.8779C224.031 56.898 231.735 57.7298 231.814 57.7377L246.801 59.3777C247.238 59.4248 247.613 59.7151 247.77 60.131C247.926 60.5469 247.84 61.0098 247.543 61.3394L231.548 79.0735C227.086 84.0249 222.632 88.686 217.959 93.3157C219.757 98.2514 221.538 103.242 223.242 108.154L229.79 127.026C229.923 127.418 229.844 127.858 229.571 128.18C229.344 128.446 229.016 128.588 228.68 128.588C228.61 128.588 228.54 128.588 228.469 128.572L208.903 124.955C204.504 124.138 200.026 123.377 195.596 122.679L188.423 121.557C188.11 121.51 187.837 121.337 187.657 121.094C187.446 121.266 187.18 121.361 186.907 121.361C186.86 121.361 186.813 121.361 186.758 121.353L181.453 120.678C177.538 120.184 173.49 119.721 169.427 119.305L167.942 119.156C166.754 119.705 165.543 120.137 164.356 120.435C162.511 121.07 161.027 121.463 159.823 121.62C159.011 121.729 158.206 121.816 157.393 121.91C155.323 122.137 153.33 122.349 151.236 123.008C154.221 124.311 155.76 125.786 156.096 126.139L166.262 136.646C166.653 137.047 166.708 137.667 166.387 138.13C166.161 138.459 165.793 138.647 165.418 138.647C165.27 138.647 165.114 138.616 164.965 138.553L151.572 132.927C151.275 132.841 150.118 132.566 147.985 132.566C145.547 132.566 142.711 132.919 139.546 133.61C137.882 133.971 136.124 134.598 134.264 135.258C130.482 136.599 126.223 138.114 121.066 138.114C114.76 138.114 108.517 135.909 101.727 131.224C104.118 137.667 102.32 143.85 102.297 143.928L97.4445 160.038C97.2961 160.54 96.835 160.878 96.3271 160.878L96.3428 160.823ZM162.199 53.006C174.639 53.4846 187.18 54.1516 199.518 54.9912C197.596 53.3277 193.861 51.9231 188.641 50.9265C183.047 49.8593 177.678 49.6396 177.632 49.6396C177.585 49.6396 177.538 49.6396 177.491 49.6239C174.584 49.161 172.693 48.7294 171.318 48.4077C170.13 48.133 169.341 47.9525 168.716 47.9525C167.958 47.9525 167.215 48.2115 165.418 49.1139C163.449 50.1026 162.386 51.3895 162.199 53.0138V53.006Z" fill="white"/>
<path d="M166.09 2.35403C160.003 18.095 177.71 22.5128 177.71 22.5128C203.527 28.0214 199.175 35.8448 199.175 35.8448C212.341 38.2852 212.794 46.5794 212.794 46.5794C213.162 50.7539 211.13 54.1987 208.551 56.8275C222.867 57.9182 231.478 58.8441 231.689 58.8677L246.676 60.5077L230.681 78.2417C226.063 83.3579 221.452 88.1917 216.608 92.9626C218.491 98.118 220.351 103.336 222.14 108.5L228.688 127.371L209.122 123.754C204.707 122.938 200.222 122.169 195.791 121.478L188.618 120.356L188.204 118.975L186.93 120.144L181.625 119.47C177.702 118.975 173.646 118.512 169.575 118.096C168.966 118.034 168.364 117.979 167.77 117.916C166.598 118.473 165.356 118.944 164.051 119.266C162.402 119.831 160.902 120.254 159.691 120.419C158.894 120.529 158.089 120.615 157.292 120.702C154.252 121.031 151.322 121.353 147.978 123.048C152.697 124.39 154.955 126.579 155.291 126.924L165.457 137.431L152.002 131.774C151.963 131.766 150.697 131.35 148.024 131.35C145.508 131.35 142.586 131.711 139.335 132.417C137.593 132.801 135.796 133.437 133.897 134.112C130.224 135.415 126.067 136.89 121.105 136.89C113.737 136.89 106.313 133.673 97.9213 126.799C103.93 134.112 101.25 143.411 101.211 143.536L96.3585 159.646L95.3817 142.846C94.7566 132.048 76.761 128.305 75.2061 127.999C52.9909 126.21 44.7316 123.707 41.4106 121.902L39.1915 122.232L31.9089 123.566C28.0409 124.272 24.1183 125.041 20.2426 125.841L2.37986 129.553L6.64628 111.74C8.25596 105.008 9.93597 98.2044 11.6394 91.4795L8.70917 91.5972L12.5771 76.4683C13.335 73.5022 14.1164 70.4733 14.9057 67.4836L16.9373 59.7308L21.8601 58.9226C28.0488 57.9025 40.7855 56.4037 58.703 55.2188C58.0466 54.803 57.4058 54.3635 56.7963 53.8692C49.3496 47.7956 40.7152 45.9673 40.7152 45.9673C42.4265 45.4886 44.2862 45.2925 46.2553 45.2925C54.7335 45.2925 65.1964 48.9334 74.0183 49.4513C78.9411 43.982 55.8352 36.6294 55.8352 36.6294C56.8276 36.3548 60.7737 35.5387 64.1805 35.2876C64.6259 35.2562 65.1573 35.2405 65.7199 35.2405C67.9938 35.2405 70.799 35.4524 70.799 35.4524C71.0334 30.0929 73.0338 29.5751 73.0338 29.5751C74.5731 37.3592 86.2706 38.5441 89.1384 38.6304C90.3105 38.6618 91.7873 38.8894 93.3736 38.8894C94.7644 38.8894 96.2256 38.7167 97.6165 38.0811C95.749 37.0532 93.2642 35.0679 90.3105 31.2543C83.4889 22.4579 86.7942 17.6242 86.7942 17.6242C86.7942 17.6242 88.9899 28.4451 104.18 30.4225C106.009 30.6579 107.532 30.7521 108.892 30.7521C113.026 30.7521 115.62 29.9282 120.566 29.9282C121.215 29.9282 121.902 29.9439 122.637 29.9752C127.739 30.195 131.92 30.9561 135.335 32.039C137.061 31.7094 138.148 31.6074 138.148 31.6074C133.834 28.5393 133.459 22.4814 133.459 22.4814C136.538 24.8904 149.415 26.0439 149.415 26.0439C149.079 25.4789 148.986 25.2043 147.563 24.6158C145.079 23.5878 143.102 18.762 143.102 18.762C144.438 20.0175 147.102 19.7664 148.603 19.8292C155.284 20.096 157.597 21.3515 157.597 21.3515C153.651 7.86258 166.106 2.36187 166.106 2.36187M162.465 7.19559C162.48 10.0833 162.957 12.5394 163.777 14.6188C162.949 12.5315 162.48 10.0833 162.465 7.19559ZM147.939 21.8615C148.134 21.8458 148.329 21.8301 148.54 21.8301C150.189 21.8301 152.392 22.3794 154.565 23.0935C152.385 22.3794 150.181 21.8301 148.54 21.8301C148.329 21.8301 148.126 21.838 147.939 21.8615ZM155.44 23.3917C155.948 23.5643 156.44 23.7526 156.925 23.9331C156.44 23.7526 155.94 23.5643 155.44 23.3917C155.354 23.3603 155.268 23.3367 155.19 23.3053C155.276 23.3367 155.362 23.3603 155.44 23.3917ZM146.243 27.935C146.337 27.935 146.43 27.935 146.516 27.935C146.563 27.935 146.61 27.935 146.657 27.935C146.657 27.935 146.665 27.935 146.673 27.935C146.673 27.935 146.665 27.935 146.657 27.935C146.61 27.935 146.563 27.935 146.516 27.935C146.423 27.935 146.337 27.935 146.243 27.935ZM149.197 27.8095C149.095 27.8095 148.993 27.8173 148.9 27.8252C149.001 27.8252 149.095 27.8173 149.197 27.8095ZM168.567 36.9826C167.692 36.6765 166.145 34.7933 164.801 32.9649C166.153 34.7933 167.7 36.6687 168.567 36.9826ZM197.104 37.9791C197.104 37.9791 197.104 37.9791 197.096 37.9791C197.096 37.9791 197.096 37.9556 197.096 37.9477V37.9791C197.096 37.9791 197.096 37.9791 197.104 37.9791ZM201.941 56.3566C199.378 49.3336 177.694 48.4783 177.694 48.4783C172.115 47.5916 170.294 46.7912 168.731 46.7912C167.692 46.7912 166.762 47.1443 164.91 48.0703C161.332 49.8751 160.878 52.3625 161.043 54.1595C176.702 54.7402 190.657 55.5641 201.933 56.3566M166.09 -5.31971e-05C166.036 -5.31971e-05 165.973 -5.31971e-05 165.918 -5.31971e-05C165.629 0.0234876 165.348 0.0941101 165.098 0.211814C160.691 2.1814 153.611 8.2 154.557 18.0479C153.08 17.7811 151.15 17.5535 148.681 17.4594C148.4 17.4515 148.071 17.4437 147.728 17.4437C146.946 17.4437 145.125 17.4358 144.696 17.0278C144.25 16.6041 143.672 16.3922 143.094 16.3922C142.633 16.3922 142.164 16.5256 141.765 16.8081C140.859 17.4358 140.507 18.6129 140.929 19.6408C141.109 20.0881 141.672 21.375 142.539 22.7639C138.937 22.144 135.842 21.3593 134.889 20.6138C134.467 20.2843 133.959 20.1195 133.451 20.1195C133.076 20.1195 132.701 20.2058 132.357 20.3941C131.545 20.8257 131.053 21.6967 131.115 22.6227C131.131 22.811 131.342 25.8399 132.928 28.9394C129.841 28.2254 126.427 27.7781 122.731 27.6133C121.988 27.5819 121.262 27.5662 120.558 27.5662C117.839 27.5662 115.745 27.8095 113.901 28.0214C112.26 28.2097 110.713 28.3902 108.876 28.3902C107.501 28.3902 106.056 28.2882 104.469 28.0841C91.256 26.3657 89.1618 17.5065 89.0759 17.1298C88.8883 16.2039 88.1694 15.4898 87.2474 15.3015C87.0911 15.2701 86.9426 15.2544 86.7864 15.2544C86.0206 15.2544 85.2939 15.6389 84.8485 16.2902C84.4109 16.9336 80.8009 22.8267 88.4507 32.6981C89.5525 34.1184 90.6465 35.3739 91.7404 36.4568C91.4669 36.4333 91.2013 36.4097 90.9356 36.3862C90.3261 36.3313 89.7479 36.2842 89.2009 36.2685C89.0759 36.2685 76.6595 35.8448 75.3311 29.1121C75.2061 28.4765 74.8232 27.9193 74.2762 27.5741C73.9011 27.3387 73.4635 27.2131 73.026 27.2131C72.8306 27.2131 72.6353 27.2367 72.4399 27.2916C71.6898 27.4878 69.4628 28.4451 68.6892 32.9649C67.775 32.9178 66.6966 32.8865 65.7121 32.8865C65.0479 32.8865 64.4775 32.9022 64.0086 32.9414C60.3048 33.2082 56.2103 34.087 55.2179 34.3617C54.2177 34.6363 53.5145 35.5387 53.491 36.5824C53.4676 37.626 54.1318 38.5598 55.1242 38.8737C55.171 38.8894 59.5938 40.3018 64.0399 42.3028C68.6892 44.3979 70.7521 45.9595 71.6585 46.8775C68.4079 46.5009 64.9151 45.7868 61.516 45.0884C56.3666 44.0291 51.0375 42.9384 46.2475 42.9384C43.9267 42.9384 41.9107 43.1895 40.0823 43.6995C39.043 43.9899 38.3319 44.955 38.371 46.0458C38.4023 47.1286 39.1758 48.0467 40.2307 48.2743C40.2932 48.29 46.0834 49.5612 52.022 53.3277C33.8545 54.6931 24.1965 56.1526 21.4694 56.5999L16.5466 57.4081C15.6324 57.5572 14.8978 58.2321 14.6634 59.1345L12.6318 66.8872C11.8582 69.8377 11.0768 72.8666 10.3032 75.8877L6.43531 91.0166C6.24777 91.7385 6.41968 92.4996 6.8807 93.0803C7.30266 93.6061 7.92777 93.9199 8.59196 93.9513C7.15419 99.6796 5.73205 105.471 4.3646 111.191L0.0825481 129.004C-0.104987 129.788 0.121618 130.612 0.67641 131.193C1.12181 131.656 1.7313 131.907 2.35641 131.907C2.51269 131.907 2.67679 131.891 2.83307 131.86L20.6958 128.148C24.5559 127.348 28.4629 126.587 32.3074 125.881L39.5509 124.554L40.9965 124.343C46.4272 126.94 57.8122 128.957 74.8701 130.338C81.0431 131.554 92.6078 135.721 93.0219 142.979L93.9987 159.779C94.0612 160.917 94.9363 161.843 96.0616 161.976C96.1553 161.984 96.2491 161.992 96.335 161.992C97.3587 161.992 98.2729 161.325 98.5777 160.321L103.43 144.211C103.454 144.14 104.813 139.424 103.696 133.837C109.697 137.494 115.354 139.228 121.074 139.228C126.442 139.228 130.802 137.682 134.647 136.317C136.475 135.666 138.202 135.054 139.804 134.7C142.883 134.026 145.641 133.688 147.993 133.688C149.861 133.688 150.892 133.908 151.205 133.986L164.528 139.589C164.825 139.715 165.129 139.77 165.434 139.77C166.192 139.77 166.926 139.401 167.372 138.742C167.997 137.816 167.895 136.576 167.114 135.775L156.948 125.268C156.714 125.025 155.94 124.272 154.573 123.401C155.534 123.252 156.51 123.142 157.526 123.032C158.323 122.946 159.152 122.852 159.988 122.742C161.254 122.569 162.801 122.169 164.699 121.518C165.848 121.227 167.005 120.819 168.153 120.309C168.544 120.348 168.935 120.388 169.325 120.427C173.381 120.843 177.421 121.298 181.32 121.792L186.625 122.467C186.727 122.483 186.821 122.483 186.922 122.483C187.118 122.483 187.313 122.459 187.501 122.412C187.735 122.538 187.985 122.624 188.251 122.663L195.424 123.785C199.839 124.476 204.301 125.237 208.692 126.053L228.258 129.671C228.399 129.694 228.54 129.71 228.68 129.71C229.36 129.71 230.009 129.412 230.462 128.886C231.009 128.25 231.173 127.371 230.899 126.579L224.351 107.707C222.726 103.022 221.038 98.275 219.327 93.559C223.82 89.0941 228.11 84.5821 232.423 79.8033L248.418 62.0692C249.012 61.4101 249.184 60.4763 248.872 59.6524C248.559 58.8284 247.809 58.2478 246.934 58.1457L231.947 56.5057C231.868 56.4979 225.008 55.7524 213.099 54.8029C214.709 52.1271 215.389 49.3022 215.131 46.3675C215.053 45.4416 214.045 37.1316 201.777 33.9929C201.714 33.2788 201.535 32.502 201.175 31.7016C198.987 26.86 191.275 22.9915 178.257 20.2058C177.764 20.0724 170.857 18.1264 168.208 12.9709C166.817 10.2637 166.833 6.99941 168.247 3.27997C168.372 2.98963 168.442 2.67575 168.442 2.33833C168.442 1.05144 167.411 -5.31971e-05 166.129 -0.0157471C166.122 -0.0157471 166.106 -0.0157471 166.098 -0.0157471L166.09 -5.31971e-05ZM163.801 51.8917C164.176 51.3111 164.832 50.7147 165.942 50.1576C167.692 49.2787 168.231 49.1296 168.708 49.1296C169.2 49.1296 169.935 49.3022 171.044 49.5534C172.443 49.8751 174.358 50.3145 177.303 50.7853C177.397 50.801 177.483 50.8089 177.577 50.8089C182.508 51.005 189.118 51.9074 193.846 53.4376C183.875 52.802 173.811 52.2841 163.801 51.8917Z" fill="white"/>
<path d="M176.147 130.918C170.099 130.918 165.661 127.913 165.473 127.779C165.028 127.473 164.848 126.908 165.036 126.398C165.207 125.935 165.645 125.629 166.137 125.629C166.176 125.629 166.223 125.629 166.262 125.629C166.716 125.676 167.161 125.708 167.583 125.708C170.052 125.708 171.537 124.837 173.115 123.919C174.483 123.118 175.897 122.294 177.905 122.02C178.983 121.871 181.117 121.8 184.242 121.8C187.993 121.8 191.939 121.91 191.978 121.91C192.525 121.926 192.986 122.318 193.095 122.859C193.205 123.401 192.924 123.942 192.423 124.162C186.547 126.799 184.188 128.274 182.773 129.153C181.429 129.992 180.757 130.408 178.89 130.698C177.991 130.84 177.069 130.91 176.147 130.91V130.918Z" fill="white"/>
<path d="M184.242 122.985C188.024 122.985 191.947 123.095 191.947 123.095C180.632 128.172 182.14 129.004 178.71 129.545C177.835 129.686 176.975 129.741 176.147 129.741C170.388 129.741 166.137 126.814 166.137 126.814C166.653 126.869 167.13 126.893 167.583 126.893C172.568 126.893 174.022 123.746 178.061 123.197C179.249 123.032 181.711 122.985 184.242 122.985ZM184.242 120.631C181.015 120.631 178.89 120.709 177.749 120.866C175.506 121.172 173.928 122.098 172.529 122.914C170.974 123.825 169.74 124.546 167.591 124.546C167.216 124.546 166.817 124.523 166.403 124.476C166.317 124.468 166.231 124.46 166.153 124.46C165.184 124.46 164.301 125.064 163.957 125.998C163.582 127.01 163.942 128.148 164.832 128.76C165.028 128.894 169.755 132.103 176.163 132.103C177.147 132.103 178.124 132.025 179.085 131.876C181.187 131.546 182.023 131.028 183.406 130.165C184.797 129.302 187.118 127.858 192.916 125.253C193.916 124.805 194.471 123.723 194.26 122.648C194.049 121.572 193.119 120.78 192.025 120.756C191.986 120.756 188.024 120.647 184.258 120.647L184.242 120.631Z" fill="white"/>
<path d="M113.166 28.7276C111.306 28.6805 105.118 28.453 103.414 27.3701C102.953 27.0797 102.531 26.6952 102.078 26.2872C101.133 25.4397 100.156 24.553 98.8823 24.553C98.5463 24.553 98.179 24.6158 97.8039 24.7335C97.6867 24.7727 97.5617 24.7884 97.4445 24.7884C96.96 24.7884 96.5146 24.4903 96.3427 24.0037C96.1318 23.4074 96.4287 22.7482 97.0147 22.5128C97.1319 22.4657 99.859 21.3986 102.234 21.3986C103.375 21.3986 104.305 21.6497 104.985 22.1362C108.408 24.5844 111.525 26.1617 113.315 26.3735C113.94 26.4441 114.393 26.9934 114.354 27.6212C114.315 28.2411 113.799 28.7197 113.182 28.7197C113.174 28.7197 113.166 28.7197 113.151 28.7197L113.166 28.7276Z" fill="white"/>
<path d="M102.242 22.5913C103.039 22.5913 103.782 22.7326 104.313 23.1092C106.298 24.5295 110.416 27.2367 113.19 27.5506C113.19 27.5506 105.602 27.3701 104.04 26.3814C102.719 25.5418 101.297 23.3839 98.8823 23.3839C98.4369 23.3839 97.9603 23.4545 97.4445 23.6193C97.4445 23.6193 100.054 22.5835 102.234 22.5835M102.234 20.2294C99.6793 20.2294 96.8897 21.3044 96.585 21.43C95.4051 21.893 94.8112 23.2191 95.241 24.4118C95.5848 25.3691 96.4834 25.9734 97.4445 25.9734C97.679 25.9734 97.9212 25.9341 98.1634 25.8557C98.4213 25.7693 98.6635 25.7301 98.8823 25.7301C99.6559 25.7301 100.304 26.2715 101.297 27.1582C101.766 27.582 102.242 28.0136 102.789 28.3588C104.626 29.528 110.064 29.8184 113.135 29.8968C113.151 29.8968 113.174 29.8968 113.19 29.8968C114.416 29.8968 115.44 28.9395 115.526 27.7075C115.612 26.452 114.698 25.3535 113.455 25.2044C111.877 25.0239 108.9 23.478 105.673 21.1789C104.782 20.5433 103.633 20.2216 102.242 20.2216L102.234 20.2294Z" fill="white"/>
<path d="M55.7337 43.9192C55.4134 43.9192 55.093 43.8721 54.6788 43.7701C51.4517 42.9541 49.756 40.3253 49.6857 40.2155C49.3966 39.7604 49.4513 39.164 49.8185 38.7716C50.0452 38.5284 50.3577 38.4028 50.6703 38.4028C50.8656 38.4028 51.061 38.4499 51.2407 38.5519C51.9439 38.9443 52.444 38.9992 52.7957 38.9992C53.077 38.9992 53.3583 38.96 53.663 38.9286C54.0147 38.8815 54.3819 38.8423 54.7882 38.8423C55.2258 38.8423 55.6321 38.8972 56.0385 39.007C57.2731 39.3445 61.0316 41.0708 61.4536 41.267C61.9536 41.4945 62.2271 42.0438 62.1099 42.5774C62.0005 43.1188 61.5317 43.5033 60.9847 43.5112C58.4061 43.5583 57.3043 43.7231 56.6558 43.8251C56.312 43.88 56.0385 43.9192 55.7259 43.9192H55.7337Z" fill="white"/>
<path d="M50.6781 39.5799C51.5142 40.0507 52.194 40.1763 52.8035 40.1763C53.5067 40.1763 54.1162 40.0115 54.796 40.0115C55.0929 40.0115 55.4055 40.0429 55.7337 40.137C56.9136 40.4588 60.9691 42.3342 60.9691 42.3342C57.0933 42.4048 56.437 42.7422 55.7259 42.7422C55.5071 42.7422 55.2805 42.7108 54.9601 42.6245C52.1471 41.9105 50.6702 39.5799 50.6702 39.5799M50.6702 37.2258C50.0451 37.2258 49.42 37.4769 48.9668 37.9634C48.2323 38.7481 48.1151 39.933 48.6933 40.8433C48.8965 41.165 50.7796 43.9899 54.3819 44.908C54.8898 45.0335 55.3039 45.0963 55.7181 45.0963C56.1322 45.0963 56.4604 45.0414 56.8277 44.9865C57.4528 44.8923 58.4998 44.7275 61.0003 44.6804C62.0943 44.6647 63.0319 43.8879 63.2507 42.805C63.4773 41.73 62.9304 40.6392 61.9302 40.1841C61.2269 39.8624 57.6325 38.2145 56.3354 37.8614C55.8275 37.7202 55.3196 37.6574 54.7726 37.6574C54.2881 37.6574 53.874 37.7123 53.5067 37.7594C53.2332 37.7908 52.991 37.8222 52.7878 37.8222C52.5534 37.8222 52.2721 37.783 51.8033 37.524C51.4438 37.32 51.0531 37.2258 50.6624 37.2258H50.6702Z" fill="white"/>
<path d="M129.521 121.047C129.521 121.047 121.731 122.718 116.019 121.204C116.019 121.204 117.753 124.013 128.701 121.761" fill="#1B1C1C"/>
<path d="M95.3661 142.846C94.741 132.048 76.7454 128.305 75.1904 127.999C43.2235 125.425 40.1292 121.376 39.1133 120.042C38.1913 118.842 38.2304 117.72 38.3319 117.163L38.6914 115.209L71.8304 107.848L73.2135 111.034L118.058 110.838L119.464 110.759L124.34 110.807L145.774 110.712C147.634 109.276 150.119 107.825 153.44 107.825H153.705C155.088 107.856 156.589 108.068 158.331 108.311C160.628 108.633 163.223 108.994 166.051 108.994C170.443 108.994 174.381 108.092 178.1 106.24L180.835 111.56C179.312 112.376 165.762 119.579 159.699 120.403C158.902 120.513 158.097 120.6 157.3 120.686C154.26 121.015 151.33 121.337 147.985 123.032C152.705 124.374 154.963 126.563 155.299 126.908L165.465 137.415L152.01 131.758C152.01 131.758 150.728 131.334 148.032 131.334C145.516 131.334 142.594 131.695 139.343 132.401C137.601 132.786 135.803 133.421 133.905 134.096C130.232 135.399 126.075 136.874 121.113 136.874C113.745 136.874 106.321 133.657 97.9291 126.783C103.938 134.096 101.258 143.395 101.219 143.52L96.3663 159.63L95.3896 142.83L95.3661 142.846Z" fill="black"/>
<path d="M6.63068 111.748C8.24036 105.015 9.92036 98.2122 11.6238 91.4874L8.69357 91.6051L12.5615 76.4762C13.3194 73.51 14.1008 70.4811 14.8901 67.4914L16.9217 59.7387L21.8445 58.9304C33.5811 56.9922 68.9002 53.3356 118.535 53.3356C180.304 53.3356 231.181 58.8127 231.689 58.8755L246.676 60.5155L230.681 78.2496C226.063 83.3658 221.452 88.1995 216.608 92.9705C218.491 98.1259 220.351 103.344 222.14 108.507L228.688 127.379L209.122 123.762C204.707 122.946 200.222 122.177 195.791 121.486L188.618 120.364L188.204 118.983L186.93 120.152L181.625 119.477C177.702 118.983 173.646 118.52 169.575 118.104C166.7 117.814 163.902 117.547 161.254 117.327L158.878 117.123L156.721 116.959C153.979 116.755 151.205 116.566 148.478 116.409L143.742 116.135L139.117 115.954C136.538 115.852 133.952 115.774 131.42 115.711L129.138 115.656L126.872 115.625C124.583 115.593 122.27 115.577 120.004 115.577C115.346 115.577 110.619 115.648 105.962 115.781L97.4681 116.025C96.6789 116.111 95.8272 116.174 94.8739 116.221C92.8579 116.323 90.834 116.441 88.8649 116.566C87.7241 116.637 86.6926 116.7 85.5518 116.7C85.2158 116.7 84.7938 116.7 84.3094 116.676L84.2625 116.825L76.5579 117.508C73.6355 117.767 70.6506 118.057 67.6891 118.379L65.4386 118.622L63.1179 118.897C60.2033 119.234 57.2418 119.611 54.3115 120.003L39.1915 122.232L31.9089 123.566C28.041 124.272 24.1183 125.041 20.2426 125.841L2.37988 129.553L6.64631 111.74L6.63068 111.748Z" fill="black"/>
<path d="M8.82633 112.274C10.6782 104.552 12.6005 96.7683 14.5618 89.094L11.6394 89.2117L14.7493 77.0333C15.5073 74.0671 16.2887 71.0461 17.0701 68.0564L18.7266 61.7318L22.2038 61.1589C33.8779 59.2364 69.0408 55.5955 118.527 55.5955C180.202 55.5955 230.931 61.0648 231.439 61.1197L242.026 62.2811L229.001 76.7194C224.101 82.1573 219.171 87.2892 213.974 92.3741C216.029 97.9689 218.053 103.634 219.999 109.253L225.266 124.437L209.513 121.525C205.074 120.701 200.573 119.932 196.119 119.242L190.345 118.34L189.298 114.887L186.157 117.767L181.89 117.225C177.952 116.723 173.881 116.26 169.779 115.844C166.895 115.554 164.082 115.287 161.418 115.06L159.042 114.856L156.87 114.691C154.111 114.487 151.33 114.298 148.587 114.141L143.852 113.867L139.187 113.686C136.608 113.584 134.006 113.506 131.459 113.443L129.177 113.388L126.895 113.357C124.598 113.325 122.27 113.31 119.988 113.31C115.307 113.31 110.564 113.38 105.884 113.514L97.3039 113.757C96.5303 113.843 95.6864 113.906 94.7488 113.953C92.7171 114.055 90.6855 114.173 88.7086 114.298C87.6068 114.369 86.6066 114.424 85.5361 114.424C84.7469 114.424 83.7701 114.393 82.684 114.251L82.5433 114.691L76.339 115.24C73.401 115.499 70.4082 115.797 67.4233 116.119L65.1729 116.362L62.8365 116.637C59.9141 116.974 56.9448 117.351 53.9911 117.751L39.8322 119.666L43.8017 105.879C44.0361 105.078 44.2705 104.262 44.5049 103.446C44.1846 103.477 43.8798 103.509 43.5907 103.532C42.9421 103.595 42.2936 103.658 41.645 103.721C40.6995 107.299 39.754 110.901 38.8398 114.463L37.3473 120.254L31.4868 121.321C27.6033 122.028 23.6572 122.804 19.7659 123.613L5.38818 126.602L8.82633 112.266V112.274Z" fill="#84152C"/>
<path d="M191.947 123.095C191.947 123.095 181.031 122.789 178.061 123.197C173.662 123.793 172.326 127.481 166.145 126.814C166.145 126.814 171.701 130.644 178.71 129.545C182.148 129.011 180.64 128.172 191.947 123.095Z" fill="black"/>
<path d="M170.802 127.528C170.802 127.528 171.404 128.062 175.053 126.359C178.694 124.656 178.796 124.445 186.907 124.099C186.907 124.099 182.609 125.268 180.156 127.026C177.624 128.839 170.802 127.528 170.802 127.528Z" fill="#84152C"/>
<path d="M12.9757 113.278C15.273 103.681 17.6797 94.0298 20.1333 84.582L17.1952 84.6997L18.8831 78.1083C19.6488 75.1186 20.4224 72.1133 21.196 69.155L22.1493 65.514L22.8916 65.3884C34.4485 63.4816 69.3066 59.8799 118.527 59.8799C179.999 59.8799 230.47 65.3257 230.978 65.3806L233.244 65.6317L225.836 73.8474C220.382 79.8974 214.865 85.5943 209.005 91.2441C211.388 97.6629 213.724 104.192 215.975 110.665L218.827 118.889L210.294 117.312C205.824 116.488 201.277 115.711 196.784 115.005L193.658 114.518L192.736 111.481C192.299 110.03 191.853 108.57 191.4 107.103C189.798 108.617 188.173 110.132 186.461 111.693L184.742 113.27L182.429 112.98C178.452 112.478 174.35 112.007 170.216 111.591C167.309 111.293 164.465 111.034 161.777 110.807L159.402 110.602L157.183 110.438C154.401 110.226 151.596 110.045 148.829 109.881L145.313 109.677C145.313 109.677 144.688 107.605 144.258 106.177C143.805 107.534 143.133 109.575 143.133 109.575L139.351 109.425C136.749 109.323 134.123 109.245 131.553 109.182L129.271 109.127L126.95 109.096C124.622 109.064 122.278 109.049 119.988 109.049C115.268 109.049 110.478 109.119 105.759 109.253L98.5387 109.457C98.5387 109.457 96.1554 109.614 94.5301 109.7C92.4828 109.802 90.4356 109.92 88.4352 110.053C87.4038 110.116 86.4817 110.171 85.5284 110.171C83.9578 110.171 81.8011 110.03 79.8477 109.01L79.3163 110.712L75.9563 111.011C72.987 111.277 69.963 111.576 66.9702 111.889L64.7198 112.133L62.3444 112.407C59.3907 112.753 56.3901 113.129 53.4208 113.529L45.7475 114.565L47.8963 107.095C48.7637 104.074 49.6857 100.935 50.6234 97.7178C47.8338 98.8556 45.1302 99.1067 43.1923 99.2872C41.567 99.4363 39.9183 99.6011 38.2773 99.7659C37.074 104.286 35.8706 108.876 34.6985 113.42L33.8937 116.558L30.7212 117.139C26.7986 117.853 22.8213 118.63 18.8987 119.446L11.1082 121.062L12.9679 113.294L12.9757 113.278Z" fill="#B0B5BC"/>
<path d="M224.977 73.0549L230.853 66.5419C230.853 66.5419 180.656 61.0491 118.527 61.0491C56.3979 61.0491 23.0791 66.5419 23.0791 66.5419L22.3212 69.4453C21.5476 72.4036 20.7662 75.409 20.0082 78.3908L18.7111 83.4599L21.6492 83.3422C19.0549 93.2921 16.5232 103.43 14.1009 113.545L12.6709 119.517L18.6642 118.269C22.5868 117.453 26.572 116.676 30.5102 115.954L32.9482 115.507L33.5655 113.098C34.8001 108.295 36.0737 103.446 37.3552 98.6594C39.2618 98.4633 41.1841 98.2828 43.0751 98.1023C45.5833 97.8669 49.1231 97.5452 52.4987 95.4265C51.311 99.4441 50.1389 103.438 49.0059 107.393L47.3493 113.137L53.2489 112.337C56.226 111.936 59.2343 111.552 62.188 111.207L64.5713 110.924L66.8217 110.681C69.8301 110.359 72.8619 110.061 75.8312 109.794L78.4176 109.567L79.1756 107.134C81.1213 108.758 83.6921 108.955 85.5049 108.955C86.4192 108.955 87.3256 108.9 88.3336 108.837C90.3418 108.711 92.3968 108.594 94.4441 108.484C97.0227 108.35 100.14 108.193 100.14 108.193L105.696 108.037C110.424 107.903 115.221 107.833 119.957 107.833C122.27 107.833 124.622 107.848 126.935 107.88L129.263 107.911L131.545 107.966C134.139 108.029 136.765 108.107 139.359 108.209L142.266 108.319C142.266 108.319 143.922 103.344 144.274 102.269C144.641 103.493 146.149 108.515 146.149 108.515L148.861 108.672C151.619 108.829 154.44 109.017 157.229 109.229L159.456 109.394L161.832 109.598C164.637 109.833 167.473 110.1 170.286 110.391C174.365 110.806 178.476 111.269 182.531 111.787L184.313 112.015L185.633 110.799C187.805 108.813 189.884 106.867 191.916 104.937C192.556 107.001 193.181 109.064 193.807 111.113L194.518 113.451L196.924 113.828C201.425 114.534 205.981 115.311 210.466 116.142L217.03 117.359L214.834 111.034C212.505 104.309 210.075 97.553 207.606 90.9145C213.654 85.1156 219.343 79.254 224.937 73.047L224.977 73.0549Z" fill="black"/>
<path d="M75.0499 75.2834C73.9168 79.2383 72.7838 83.2245 71.6508 87.2264C70.1036 87.3598 68.5643 87.5011 67.0171 87.6423C68.1189 83.6012 69.2206 79.5835 70.3224 75.5973C66.603 75.8562 62.8913 76.1387 59.1797 76.4526C58.5936 78.6262 57.9998 80.8155 57.4059 83.0048C58.1326 82.9342 58.8515 82.8635 59.5782 82.7929L61.4926 82.5654L59.1953 84.1897C57.0387 92.0366 54.8898 99.9856 52.741 108.052C55.7415 107.589 58.7421 107.15 61.7505 106.734C62.9148 102.489 64.079 98.2671 65.2433 94.0847C66.7827 93.9199 68.3298 93.7551 69.877 93.5981C68.7284 97.7413 67.5797 101.916 66.431 106.114C69.455 105.73 72.4791 105.369 75.5109 105.047C78.3864 94.8066 81.262 84.7233 84.1297 74.7655C81.1057 74.9146 78.0739 75.0872 75.0499 75.2834Z" fill="white"/>
<path d="M57.0308 76.8607C57.4059 75.4483 57.8513 73.4081 57.8591 71.925C57.8747 67.5778 53.3504 67.4287 52.108 67.4051C50.8031 67.3816 49.6232 67.4758 48.3886 67.5699C40.9418 68.1428 33.5029 68.8176 26.0719 69.5709C25.3061 72.6469 24.5403 75.7464 23.7745 78.8538C24.7591 78.7283 25.7437 78.6106 26.736 78.4929L29.385 78.1947L26.4157 79.8112C23.5636 91.1421 20.7193 102.685 17.9062 114.463C21.8757 113.639 25.8609 112.839 29.846 112.062C31.3385 106.091 32.8309 100.174 34.3234 94.3201C37.1286 93.9042 39.9338 93.4962 42.739 93.1117C46.0209 92.6644 49.3028 92.1073 52.1705 89.1019C54.3506 86.7635 55.1008 84.1584 55.7337 81.7964C56.1713 80.1407 56.6167 78.4929 57.0542 76.8529L57.0308 76.8607ZM43.1766 85.8062C40.8871 86.0809 38.5898 86.3712 36.3003 86.6694C37.113 83.4678 37.9256 80.2898 38.7383 77.1275C41.0278 76.8842 43.3251 76.6488 45.6146 76.4213C44.8019 79.5365 43.9815 82.6596 43.1688 85.8062H43.1766Z" fill="white"/>
<path d="M157.901 74.8754C156.237 80.6429 154.565 86.3712 152.893 92.0759C151.471 86.1671 150.048 80.2898 148.626 74.4438C145.079 74.3026 141.531 74.1849 137.984 74.0907C137.405 76.0838 136.819 78.0769 136.241 80.0622C136.952 80.0779 137.663 80.1015 138.374 80.125C138.374 80.125 138.374 80.125 138.374 80.1328L140.086 80.1878L137.952 81.561C135.866 88.6468 133.78 95.7169 131.678 102.787C134.303 102.865 136.929 102.967 139.554 103.093C141.203 97.5373 142.852 91.9817 144.493 86.3947C146.04 92.123 147.587 97.8748 149.134 103.674C151.947 103.878 154.76 104.105 157.573 104.364C160.363 94.7909 163.152 85.1313 165.934 75.3541C163.254 75.1814 160.582 75.0245 157.901 74.8832V74.8754Z" fill="white"/>
<path d="M109.111 77.9435C109.111 74.1456 105.235 74.0044 102.391 74.0828C100.328 74.1378 98.2573 74.1927 96.1944 74.2633C91.5529 74.4203 88.6226 74.844 86.716 78.7596C85.9503 80.3369 85.1923 83.1696 84.5203 85.5001C83.6139 88.7017 82.6996 91.9111 81.7932 95.1283C81.215 97.2235 80.6915 98.9419 80.6836 100.284C80.668 104.396 84.364 104.16 88.1069 103.862C90.162 103.697 92.2171 103.556 94.2721 103.423C97.6868 103.211 99.2027 102.724 100.633 101.673C102.914 100.048 103.719 98.016 105.009 93.5119C105.915 90.4123 106.821 87.3285 107.72 84.2446C108.29 82.1887 109.103 79.968 109.103 77.9278L109.111 77.9435ZM99.4215 81.5767C97.8587 86.9283 96.3975 92.1386 94.8113 97.3412C93.1391 97.4353 91.4591 97.5373 89.7869 97.655L87.7318 97.7963L90.1932 96.2661C91.7326 90.9381 93.2719 85.6335 94.8113 80.3604C96.4757 80.2898 98.14 80.227 99.8044 80.1721H99.8122H99.8201L101.727 80.0779L99.4137 81.5688L99.4215 81.5767Z" fill="white"/>
<path d="M222.101 70.4419C217.584 69.9397 213.06 69.4689 208.536 69.0373C205.152 72.6233 201.777 76.1466 198.401 79.6071C197.237 75.6522 196.065 71.7288 194.893 67.8288C191.189 67.5307 187.485 67.2482 183.781 66.9971C183.023 69.7592 182.273 72.5135 181.515 75.2521C182.507 75.3305 183.5 75.4168 184.492 75.5032L186.891 75.6993L184.828 76.3035C186.407 80.1015 187.985 83.9308 189.564 87.815C183.742 93.1509 177.975 98.118 172.138 103.226C171.912 104.027 171.677 104.835 171.443 105.643C174.201 96.015 176.96 86.2691 179.718 76.3742C175.959 76.0603 172.193 75.7778 168.427 75.5267C167.833 77.5669 167.247 79.6071 166.653 81.6316C167.38 81.6865 168.099 81.7415 168.825 81.7964L170.536 81.9376L168.419 83.2088C166.348 90.4751 164.27 97.6786 162.199 104.819C165.262 105.133 168.317 105.478 171.38 105.855C175.28 106.334 179.171 106.86 183.062 107.432C186.649 103.925 190.228 100.378 193.806 96.7605C195.057 101.053 196.307 105.384 197.557 109.755C202.113 110.548 206.66 111.387 211.2 112.274C208.52 104.309 205.824 96.4937 203.121 88.8116C209.434 82.9028 215.756 76.79 222.085 70.4419H222.101Z" fill="white"/>
<path d="M116.394 96.635L114.862 96.6899L116.667 95.7169C117.175 94.0063 117.683 92.3035 118.199 90.6007C120.519 90.5929 122.848 90.6007 125.169 90.6243C125.692 88.8901 126.208 87.1559 126.732 85.4296C124.411 85.3982 122.09 85.3903 119.761 85.3903L118.144 85.406L120.027 84.4644L120.011 84.5272C120.465 82.9656 120.918 81.412 121.371 79.8504C125.489 79.8583 129.615 79.9132 133.733 80.0073C134.327 78.0142 134.928 76.029 135.522 74.0358C127.661 73.8632 119.808 73.824 111.947 73.9103C111.346 75.9113 110.744 77.9201 110.142 79.9289C110.9 79.9132 111.658 79.9053 112.416 79.8975L114.557 79.9132L111.994 81.3256C109.869 88.482 107.744 95.6541 105.61 102.873C112.745 102.614 119.886 102.552 127.021 102.677C127.607 100.692 128.185 98.7066 128.771 96.7135C124.645 96.635 120.512 96.6115 116.386 96.6429L116.394 96.635Z" fill="white"/>
<path d="M66.0871 67.0521C65.0635 67.1227 64.0477 67.2012 63.024 67.2718C62.7505 68.8098 62.477 70.3399 62.2114 71.8779C63.2272 71.7995 64.243 71.7288 65.251 71.6504C65.1494 72.231 65.0478 72.8117 64.9463 73.3924C63.8601 73.4709 62.774 73.5493 61.6878 73.6356C61.1252 73.6827 60.1485 73.7455 60.0625 72.6626C60.0235 72.2153 60.1016 71.7602 60.2423 71.0148C60.3751 70.2693 60.5079 69.5238 60.6329 68.7705C60.8908 67.3581 61.0002 66.7696 61.3206 66.338C61.805 65.6788 62.5864 65.5611 63.3053 65.5062C64.3368 65.4277 65.376 65.3571 66.4075 65.2865C66.2981 65.875 66.1887 66.4557 66.0871 67.0442V67.0521Z" fill="white"/>
<path d="M78.0738 70.6773C78.0035 71.0304 77.9254 71.4227 77.6909 71.7602C77.1596 72.5919 76.2844 72.6547 75.8781 72.6783C75.4093 72.7096 74.9326 72.7332 74.4638 72.7646C73.5495 72.8195 72.604 72.8195 72.5415 71.8779C72.5259 71.6189 72.5806 71.3443 72.6353 71.0225C72.9166 69.5159 73.1979 68.0015 73.4792 66.4949C73.2995 66.5027 73.1276 66.5184 72.9479 66.5263C73.0573 65.9613 73.1588 65.4041 73.2682 64.8392C74.1668 64.7842 75.0733 64.7293 75.9719 64.6822C75.5499 66.8166 75.1358 68.951 74.7216 71.0853C75.1045 71.0618 75.4874 71.0382 75.8703 71.0147C76.2844 68.8803 76.6986 66.746 77.1205 64.6116C77.8472 64.5724 78.5739 64.5331 79.3006 64.4939C78.8865 66.5498 78.4723 68.6135 78.066 70.6773H78.0738Z" fill="white"/>
<path d="M91.6699 71.9249C91.0057 71.9485 90.3415 71.972 89.6774 72.0034C89.9821 70.5439 90.2869 69.0844 90.5916 67.6248C89.7321 68.8019 88.8725 69.9867 88.0208 71.1716C87.6223 70.0417 87.2238 68.9117 86.8253 67.7818C86.5205 69.2413 86.2236 70.7087 85.9188 72.1682C85.2468 72.1996 84.5748 72.231 83.9028 72.2624C84.3326 70.1358 84.7702 68.0015 85.2156 65.875C85.0359 65.8828 84.864 65.8907 84.6842 65.8985C84.8014 65.3414 84.9108 64.7764 85.028 64.2192C85.8798 64.18 86.7237 64.1408 87.5754 64.1094C87.9661 65.31 88.349 66.5027 88.7397 67.7033C89.6383 66.4556 90.5447 65.2001 91.4589 63.9525C92.1075 63.9289 92.7639 63.9054 93.4124 63.8818C92.8264 66.5655 92.2482 69.2491 91.6699 71.9328V71.9249Z" fill="white"/>
<path d="M104.657 65.2629C104.626 65.4198 104.586 65.5846 104.555 65.7415C104.469 66.1025 104.375 66.5262 104.102 66.8558C103.727 67.3188 103.25 67.4051 102.906 67.4679C103.477 67.5542 104.11 67.7033 104.125 68.4173C104.125 68.6684 104.094 68.9038 103.883 69.7435C103.766 70.2064 103.61 70.7557 103.25 71.101C102.75 71.5875 102.031 71.6032 101.32 71.6189C100.211 71.6503 99.101 71.6738 97.9836 71.713C98.4603 69.5944 98.9369 67.4679 99.4214 65.3492C99.2495 65.3492 99.0698 65.357 98.8979 65.3649C99.0229 64.8077 99.1479 64.2506 99.2729 63.6935C100.594 63.6542 101.922 63.6229 103.242 63.5915C103.899 63.5758 104.711 63.5915 104.727 64.5566C104.727 64.7607 104.711 64.9882 104.649 65.2629H104.657ZM100.758 68.2918C100.625 68.8568 100.5 69.4217 100.375 69.9867C100.812 69.9789 101.258 69.9632 101.695 69.9553C101.82 69.3904 101.945 68.8254 102.07 68.2604C101.633 68.2682 101.195 68.2839 100.758 68.2918ZM101.445 65.3021C101.328 65.8122 101.211 66.3144 101.094 66.8244C101.492 66.8166 101.891 66.8009 102.281 66.793C102.399 66.283 102.516 65.7808 102.633 65.2707C102.234 65.2786 101.836 65.2864 101.437 65.3021H101.445Z" fill="white"/>
<path d="M117.159 65.0746C116.175 65.0746 115.182 65.0824 114.198 65.0903C114.073 65.6003 113.948 66.1182 113.823 66.6283C114.377 66.6283 114.932 66.6204 115.487 66.6126C115.362 67.0991 115.245 67.5778 115.12 68.0643C114.565 68.0643 114.01 68.0721 113.455 68.08C113.315 68.6371 113.182 69.1942 113.041 69.7592C114.026 69.7514 115.003 69.7435 115.987 69.7357C115.854 70.2928 115.714 70.8421 115.581 71.3992C113.885 71.4071 112.197 71.4228 110.502 71.4463C111.01 69.3355 111.525 67.2168 112.041 65.106C111.861 65.106 111.682 65.106 111.494 65.106C111.635 64.5488 111.768 63.9917 111.908 63.4424C113.799 63.4189 115.69 63.411 117.573 63.4032C117.433 63.9603 117.292 64.5096 117.151 65.0667L117.159 65.0746Z" fill="white"/>
<path d="M130.193 65.208C130.13 65.4277 130.076 65.6474 130.013 65.875C129.834 66.5655 129.576 67.1383 128.411 67.4365C128.747 67.4836 129.427 67.5856 129.419 68.3546C129.419 68.5822 129.349 68.8411 129.279 69.0844C129.076 69.8691 128.88 70.6459 128.677 71.4306C128.341 71.4306 127.997 71.4306 127.661 71.4228C127.021 71.4228 126.692 71.3914 126.677 70.9362C126.677 70.8264 126.7 70.6773 126.786 70.3477C126.974 69.6258 127.161 68.9117 127.349 68.1977C126.942 68.1977 126.536 68.1977 126.13 68.1898C125.833 69.2648 125.544 70.332 125.247 71.4071C124.567 71.4071 123.887 71.4071 123.207 71.3992C123.746 69.2962 124.286 67.1933 124.833 65.0903C124.661 65.0903 124.489 65.0903 124.325 65.0903C124.465 64.5331 124.606 63.9839 124.747 63.4346C126.02 63.4346 127.294 63.4503 128.568 63.466C129.31 63.466 130.31 63.5444 130.295 64.6195C130.295 64.8235 130.263 65.0275 130.209 65.2315L130.193 65.208ZM126.911 65.0981C126.77 65.6396 126.63 66.1732 126.489 66.7146C126.903 66.7146 127.317 66.7146 127.739 66.7224C127.88 66.181 128.021 65.6474 128.161 65.106C127.747 65.106 127.325 65.0981 126.911 65.0981Z" fill="white"/>
<path d="M141.742 71.6818C139.992 71.6347 138.241 71.5876 136.491 71.5562C137.069 69.4611 137.647 67.3659 138.233 65.2708C138.062 65.2708 137.89 65.2708 137.726 65.263C137.882 64.7137 138.03 64.1644 138.187 63.6151C139.093 63.6387 139.992 63.6622 140.898 63.6857C140.304 65.7809 139.718 67.8682 139.132 69.9633C140.164 69.9868 141.195 70.0182 142.226 70.0418C142.07 70.591 141.906 71.1403 141.75 71.6896L141.742 71.6818Z" fill="white"/>
<path d="M154.955 72.1682C154.221 72.1368 153.486 72.1054 152.752 72.074C152.846 71.4227 152.939 70.7714 153.041 70.1201C152.596 70.1044 152.142 70.0809 151.697 70.0652C151.423 70.7087 151.15 71.3521 150.876 72.0034C150.056 71.972 149.243 71.9406 148.423 71.9092C148.579 71.36 148.743 70.8107 148.9 70.2614C149.087 70.2614 149.275 70.2771 149.462 70.2849C150.431 68.2133 151.408 66.1417 152.392 64.078C153.549 64.1251 154.713 64.18 155.87 64.2271C155.565 66.8794 155.26 69.5238 154.955 72.176V72.1682ZM152.267 68.7234C152.596 68.7391 152.932 68.7548 153.26 68.7626C153.424 67.6484 153.588 66.5341 153.752 65.4198C153.252 66.5184 152.76 67.617 152.26 68.7155L152.267 68.7234Z" fill="white"/>
<path d="M166.653 72.7803C165.989 72.7411 165.317 72.7019 164.653 72.6626C164.379 71.0932 164.098 69.5239 163.824 67.9466C163.34 69.4768 162.863 70.9991 162.379 72.5292C161.754 72.4978 161.136 72.4586 160.511 72.4272C161.152 70.3556 161.801 68.2762 162.449 66.2046C162.277 66.1968 162.105 66.1889 161.941 66.1732C162.113 65.6239 162.277 65.0825 162.449 64.5332C163.301 64.5803 164.153 64.6274 165.004 64.6744C165.254 66.2752 165.497 67.876 165.739 69.4768C166.231 67.9231 166.731 66.3615 167.231 64.8078C167.872 64.8471 168.521 64.8863 169.161 64.9255C168.317 67.5386 167.481 70.1516 166.645 72.7646L166.653 72.7803Z" fill="white"/>
<path d="M180.687 68.794C180.452 69.4845 180.226 70.1751 179.991 70.8577C179.226 73.1647 178.827 73.612 177.108 73.4865C175.983 73.4001 174.858 73.3217 173.732 73.2432C174.412 71.1795 175.1 69.1157 175.788 67.052C175.616 67.0363 175.451 67.0284 175.28 67.0127C175.459 66.4713 175.639 65.9299 175.819 65.3884C177.046 65.4747 178.28 65.5689 179.507 65.6631C180.234 65.718 180.507 65.7651 180.757 65.922C181.249 66.2202 181.21 66.7381 181.195 66.895C181.164 67.2717 181.124 67.4914 180.679 68.794H180.687ZM177.913 67.2089C177.405 68.7234 176.889 70.2457 176.381 71.768C176.749 71.7915 177.108 71.8229 177.475 71.8465C177.983 70.3241 178.491 68.8097 178.999 67.2874C178.64 67.256 178.272 67.2325 177.913 67.2089Z" fill="white"/>
<path d="M139.585 116.299C139.585 116.299 145.297 111.505 149.837 110.32C154.526 109.096 159.097 111.254 164.809 111.003C170.708 110.744 178.288 109.276 178.288 109.276C178.288 109.276 170.896 119.109 161.144 119.736L139.593 116.307L139.585 116.299Z" fill="black"/>
<path d="M159.284 117.32C164.996 116.543 176.178 110.187 176.178 110.187C165.246 113.883 158.909 110.83 153.627 110.705C148.345 110.587 144.844 115.413 142.344 116.213C139.843 117.013 143.211 113.624 143.211 113.624L119.886 112.274L106.954 112.98L70.002 112.274L41.27 117.586C41.27 117.586 40.4417 122.09 75.5811 124.907C75.5811 124.907 97.5384 128.619 98.3432 142.547C98.3432 142.547 102.555 128.564 87.3646 123.181L75.9406 120.207C75.9406 120.207 91.1622 123.385 97.6009 122.42V122.498C118.777 141.088 128.435 131.609 138.687 129.365C148.939 127.12 153.135 128.886 153.135 128.886C153.135 128.886 149.283 124.908 140.015 124.868L140.109 124.853C147.962 117.728 153.565 118.104 159.277 117.327L159.284 117.32Z" fill="#84152C"/>
<path d="M97.7807 125.08C97.7807 125.08 105.509 124.782 114.737 126.838C126.802 129.529 134.983 125.08 137.749 122.02C137.749 122.02 132.006 129.098 114.737 124.342C100.656 120.466 94.28 122.671 93.2642 122.569C92.3812 122.475 97.7729 125.08 97.7729 125.08H97.7807Z" fill="black"/>
<path d="M118.198 116.174C118.198 116.174 116.268 115.656 109.548 114.557C102.969 113.482 103.289 114.016 101.352 113.639C101.352 113.639 105.462 113.208 108.712 112.972C112.322 112.705 121.621 114.424 126.856 115.625C132.67 116.959 143.203 113.616 143.203 113.616L141.023 116.142L128.661 118.19L118.191 116.174H118.198Z" fill="#6C1228"/>
<path d="M143.211 113.616C143.211 113.616 136.405 119.783 121.621 116.668C121.621 116.668 120.066 116.229 118.206 116.166C118.206 116.166 123.832 117.429 125.036 118.661C126.247 119.893 130.38 122.083 139.077 121.29C139.077 121.29 132.92 121.565 128.083 118.724C128.083 118.724 141.476 119.273 147.149 112.964" fill="black"/>
<path d="M43.0281 119.234C43.0281 119.234 54.2099 122.02 64.579 122.02C66.4465 122.02 80.9258 122.255 92.5452 132.142C92.5452 132.142 86.841 126.61 73.8386 125.174C63.4772 124.029 49.0526 123.417 43.0281 119.234Z" fill="#6C1228"/>
<path d="M75.9406 120.199C75.9406 120.199 70.7912 119.43 68.4314 117.837C68.4314 117.837 82.8794 120.552 90.9669 119.014C96.4445 117.979 102.274 120.356 110.947 122.805C115.096 123.974 125.606 125.983 125.606 125.983C125.606 125.983 122.832 125.983 119.808 125.472C114.182 124.515 101.172 122.051 97.976 122.075C92.725 122.114 96.1866 124.06 75.9406 120.199Z" fill="#6C1228"/>
<path d="M100.727 125.096C100.727 125.096 113.823 136.811 126.739 133.076C126.739 133.076 110.369 132.284 108.72 125.771C108.72 125.771 103.665 125.112 100.727 125.096Z" fill="#6C1228"/>
<path d="M140.109 124.86C140.109 124.86 138.695 124.86 136.96 125.135C136.468 125.214 135.952 125.308 135.444 125.441C135.444 125.441 136.03 124.931 136.835 124.476C137.179 124.288 137.569 124.146 137.952 123.982C146.892 120.097 145.18 116.284 157.065 117.586C157.065 117.586 154.471 117.869 151.111 118.575C147.65 119.297 144.399 121.259 140.109 124.86Z" fill="#6C1228"/>
<path d="M197.073 37.9634C197.073 37.9634 196.815 31.3799 188.314 28.6962C179.812 26.0125 162.535 24.812 162.449 7.18774C162.449 7.18774 156.683 15.1445 162.652 26.3813C162.652 26.3813 152.416 21.4142 147.931 21.8615C147.931 21.8615 153.08 25.0709 154.87 27.4328C154.87 27.4328 149.22 27.8487 146.501 27.935C142.899 28.0449 136.671 25.9419 136.671 25.9419C136.671 25.9419 138.281 29.936 144.61 31.3877C144.61 31.3877 132.592 33.1454 126.357 38.8266C126.357 38.8266 136.843 37.0139 144.758 39.9566C144.758 39.9566 133.069 43.0247 125.872 50.3616C125.872 50.3616 133.741 51.4994 141.508 48.9413C141.508 48.9413 142.641 57.9417 147.47 57.3846C150.83 57.0001 162.731 61.9437 158.433 52.9118C157.425 50.6048 158.113 47.1208 167.255 45.3866C167.255 45.3866 159.214 40.2469 155.667 33.5848C155.667 33.5848 162.145 34.4637 163.629 34.1498C163.629 34.1498 161.676 29.4338 162.191 29.2219C162.191 29.2219 166.77 36.3548 168.544 36.9826C168.544 36.9826 162.77 35.4838 158.581 35.4367C158.581 35.4367 167.091 43.0326 174.186 43.5269C174.186 43.5269 172.67 40.7883 173.014 39.3523C173.014 39.3523 177.022 42.8913 183.781 41.5416C190.548 40.192 192.502 42.0438 192.502 42.0438C192.502 42.0438 192.978 39.9095 195.205 39.2425C195.205 39.2425 202.285 39.4387 197.073 37.9791V37.9634Z" fill="#84152C"/>
<path d="M147.931 21.8537C147.931 21.8537 154.565 24.2862 156.909 27.7703C159.089 31.0032 160.691 30.6893 160.691 30.6893C160.691 30.6893 159.019 31.3171 155.721 29.3396C152.424 27.3622 150.361 27.7389 148.806 27.8095C147.251 27.8801 151.869 26.4363 151.869 26.4363C151.869 26.4363 148.931 24.4432 147.923 21.8458L147.931 21.8537Z" fill="#6C1228"/>
<path d="M162.457 7.18774C162.457 7.18774 158.011 16.2588 166.129 27.3073C167.137 28.6805 168.013 29.7791 168.888 30.501C170.896 32.1724 173.475 32.5412 173.475 32.5412C173.475 32.5412 169.614 32.9335 167.981 31.4976C167.083 30.705 166.036 29.4417 164.153 28.7276C161.089 27.5662 158.651 24.8198 156.925 23.9253C156.253 23.5721 158.183 24.1214 158.55 21.375C159.113 17.0827 158.902 8.75713 162.465 7.18774H162.457Z" fill="#6C1228"/>
<path d="M136.929 26.4205C136.929 26.4205 141.828 31.2699 147.407 30.9639C147.407 30.9639 149.212 30.6971 151.502 30.9639C151.502 30.9639 142.305 32.6196 139.711 34.291L136.491 32.7844L139.531 31.6701L136.491 27.2523L136.921 26.4205H136.929Z" fill="#6C1228"/>
<path d="M155.667 33.5692C155.667 33.5692 156.096 40.2548 159.925 43.4328C159.925 43.4328 148.798 46.9717 142.438 56.341C142.438 56.341 157.776 54.3008 159.347 56.341C159.347 56.341 157.253 49.3572 159.925 47.7643C163.566 45.5907 167.262 45.3553 167.262 45.3553C167.262 45.3553 156.565 34.4245 155.674 33.5535L155.667 33.5692Z" fill="#6C1228"/>
<path d="M185.141 34.4402C185.141 34.4402 184 36.0331 186.79 35.9703C186.79 35.9703 186.704 34.8325 186.047 34.6834C185.391 34.5343 185.141 34.4402 185.141 34.4402Z" fill="#1B1C1C"/>
<path d="M186.313 35.7506C186.743 35.7506 185.969 35.4524 185.969 35.4524L186.313 35.7506Z" fill="white"/>
<path d="M180.327 31.8821C180.327 31.8821 179.359 37.6888 188.556 37.0532C188.556 37.0532 185.344 32.6668 180.327 31.8821Z" fill="black"/>
<path d="M181.046 32.1488C181.046 32.1488 180.734 34.1027 182.906 35.2719C185.078 36.4411 187.766 36.7236 187.766 36.7236C187.766 36.7236 186.211 34.1655 183.984 33.1768C181.757 32.188 181.039 32.1566 181.039 32.1566L181.046 32.1488Z" fill="white"/>
<path d="M178.765 31.3877C178.765 31.3877 183.375 29.8732 185.813 32.5569C187.493 34.4087 187.884 36.7785 191.033 37.6181C191.033 37.6181 188.618 37.3121 187.477 36.5588C186.336 35.8055 185 33.1768 178.757 31.3877H178.765Z" fill="black"/>
<path d="M184.914 43.8799C184.914 43.8799 195.151 45.3944 196.917 44.8294C196.917 44.8294 195.862 44.4449 195.674 43.5033C195.674 43.5033 210.708 46.9089 206.794 55.7053C206.794 55.7053 204.442 59.3462 203.058 60.0368C203.058 60.0368 204.621 54.6067 202.933 52.8882C201.246 51.1697 188.915 48.0937 179.093 46.4616C179.093 46.4616 175.717 45.2061 175.209 42.3105L184.914 43.8721V43.8799Z" fill="white"/>
<path d="M212.795 46.5793C212.795 46.5793 212.341 38.2851 199.175 35.8447C199.175 35.8447 203.527 28.0213 177.718 22.5128C177.718 22.5128 160.011 18.095 166.098 2.354C166.098 2.354 153.643 7.85471 157.589 21.3436C157.589 21.3436 155.276 20.0881 148.595 19.8213C147.095 19.7585 144.438 20.0096 143.094 18.7541C143.094 18.7541 145.071 23.58 147.556 24.6079C148.97 25.1964 149.072 25.4711 149.408 26.0361C149.408 26.0361 136.522 24.8826 133.452 22.4735C133.452 22.4735 133.827 28.5314 138.14 31.5995C138.14 31.5995 120.816 33.2866 114.706 44.0605C114.706 44.0605 126.911 39.7133 133.123 41.11C133.123 41.11 123.551 45.2767 120.793 52.3076C120.793 52.3076 122.598 53.6337 128.404 53.2885C131.615 53.4454 137.179 54.9912 142.453 55.5327C143.797 54.6303 144.235 53.775 145.805 53.3355C142.508 52.2448 141.516 48.9413 141.516 48.9413C133.748 51.4994 125.88 50.3616 125.88 50.3616C133.076 43.0247 144.766 39.9565 144.766 39.9565C136.851 37.0139 126.364 38.8266 126.364 38.8266C132.6 33.1454 144.618 31.3877 144.618 31.3877C138.288 29.9281 136.679 25.9419 136.679 25.9419C136.679 25.9419 142.914 28.0449 146.509 27.935C149.228 27.8565 154.877 27.4407 154.877 27.4407C153.088 25.0787 147.939 21.8693 147.939 21.8693C152.432 21.4299 162.66 26.3892 162.66 26.3892C156.933 15.5212 162.457 7.19556 162.457 7.19556C162.535 24.8198 179.82 26.0204 188.321 28.704C196.823 31.3877 197.081 37.9712 197.081 37.9712C202.293 39.4308 195.213 39.2346 195.213 39.2346C192.986 39.9094 192.51 42.036 192.51 42.036C192.51 42.036 190.556 40.1841 183.789 41.5338C177.022 42.8834 173.021 39.3445 173.021 39.3445C172.678 40.7804 174.194 43.519 174.194 43.519C167.098 43.0247 158.589 35.4288 158.589 35.4288C162.785 35.4759 168.552 36.9747 168.552 36.9747C166.77 36.3469 162.199 29.2141 162.199 29.2141C161.683 29.4338 163.637 34.1419 163.637 34.1419C162.152 34.448 155.674 33.577 155.674 33.577C159.23 40.2312 167.263 45.3788 167.263 45.3788C154.33 47.1365 157.972 53.8377 159.355 56.3566C159.831 56.49 160.941 56.4351 161.402 56.4351C161.91 56.4351 158.659 51.2169 164.895 48.0624C169.521 45.7476 168.38 46.9952 177.679 48.4704C177.679 48.4704 211.654 49.8044 199.573 62.9088C199.573 62.9088 213.724 57.0393 212.795 46.5872V46.5793Z" fill="black"/>
<path d="M199.753 49.6553C204.301 51.4366 204.668 55.6661 204.668 55.6661C204.715 56.3096 203.801 58.4204 203.558 59.0717C203.558 59.0717 212.201 51.8525 209.27 46.2105C206.34 40.5764 202.293 39.4151 197.073 37.9556C197.073 37.9556 196.268 38.3479 195.205 39.2189C195.205 39.2189 193.58 42.0674 194.666 43.8486C194.666 43.8486 189.587 43.1345 186.493 43.7309C183.391 44.3273 176.717 43.0639 176.28 42.5146C176.28 42.5146 176.217 44.7275 181.078 46.1713C181.078 46.1713 183 46.548 185.578 47.0188C191.228 47.7721 195.221 47.8662 199.769 49.6475L199.753 49.6553Z" fill="#B0B5BC"/>
<path d="M199.886 40.4666C199.886 40.4666 198.901 40.7256 197.659 42.5304C197.362 42.9619 196.135 40.8511 197.659 40.4901C199.104 40.1449 199.886 40.4745 199.886 40.4745V40.4666Z" fill="black"/>
<path d="M203.558 59.0795C203.558 59.0795 207.669 49.5141 192.361 48.0389C177.671 46.6186 175.709 44.6961 176.272 42.5225C176.272 42.5225 175.709 45.7868 197.081 47.8427C210.974 49.1767 203.558 59.0795 203.558 59.0795Z" fill="#7D7D7D"/>
<path d="M97.1869 47.1836C97.1869 47.1836 86.2942 47.16 82.7545 48.4626C71.3383 52.6607 52.4363 42.6873 40.7075 45.9673C40.7075 45.9673 49.342 47.7957 56.7887 53.8692C69.7599 64.4468 94.538 55.6661 94.538 55.6661L111.947 49.8751L108.197 46.7285L97.1869 47.1836Z" fill="black"/>
<path d="M106.04 32.7374C106.04 32.7374 103.626 32.3764 100.195 36.1743C96.765 39.9723 91.9907 38.7168 89.123 38.6304C86.2552 38.5441 74.5577 37.3592 73.0184 29.5751C73.0184 29.5751 71.0102 30.093 70.7836 35.4524C70.7836 35.4524 66.4156 35.1229 64.1651 35.2876C60.7582 35.5309 56.82 36.3548 55.8198 36.6295C55.8198 36.6295 78.9335 43.982 74.0029 49.4592L79.0976 52.1978L103.61 39.9095L106.04 32.7452V32.7374Z" fill="black"/>
<path d="M144.727 56.0506C142.477 56.231 137.89 57.9338 137.89 57.9338C141.625 54.9128 143.774 51.0364 143.774 51.0364L146.149 51.6641L144.719 56.0584L144.727 56.0506Z" fill="black"/>
<path d="M144.727 56.0506C144.727 56.0506 148.29 51.5621 148.743 46.2184C149.197 40.8746 143.735 30.8855 122.621 29.9674C114.409 29.6064 112.276 31.474 104.157 30.4225C88.9666 28.4451 86.7708 17.6241 86.7708 17.6241C86.7708 17.6241 83.4733 22.4579 90.2871 31.2543C97.1087 40.0507 101.438 39.1404 101.438 39.1404L144.719 56.0584L144.727 56.0506Z" fill="black"/>
<path d="M124.161 31.9135C117.613 30.862 113.557 32.9022 108.314 32.8002C107.939 32.8002 107.587 32.8316 107.251 32.9022C107.251 32.9022 93.2173 32.2195 88.4821 23.9802C88.4821 23.9802 90.2636 32.2666 100.586 37.9007C99.0075 39.1327 97.0462 40.1214 94.1863 40.2155C93.9206 40.2234 93.6549 40.2155 93.3892 40.2234C92.8891 40.1998 92.2484 40.1998 91.4592 40.2155C90.8028 40.1998 90.1542 40.1685 89.5135 40.1292C86.3723 39.8075 82.4184 38.7011 81.3635 38.4892C73.9168 36.9904 72.8541 31.3799 72.8541 31.3799C71.1194 34.9502 72.2993 36.9591 72.2993 36.9591L72.2212 37.0297C71.1976 36.7943 70.213 36.5746 69.2753 36.3862C66.0403 35.7428 62.6881 36.857 61.1332 37.0218C61.1332 37.0218 65.5324 38.089 69.3769 39.886C74.2216 42.1459 82.8247 53.3513 72.2993 51.1149C66.2904 49.8437 53.1082 47.0738 47.6072 46.7677C47.6072 46.7677 54.335 49.9065 61.3519 54.9285C69.0331 60.4292 92.6313 59.4091 101 59.0089C106.001 58.7657 110.9 58.5774 115.417 58.4283C127.263 59.3935 135.296 59.88 135.968 59.2522C137.069 58.2243 137.913 57.9182 137.913 57.9182C137.913 57.9182 140.812 55.6034 143.25 52.1036C147.548 45.7555 149.314 35.9625 124.161 31.9135Z" fill="#84152C"/>
<path d="M72.5962 39.627C72.5962 39.627 74.3387 42.546 79.0037 42.4833C80.8165 42.4597 84.0359 43.6132 84.0359 43.6132C84.0359 43.6132 82.1996 42.3577 76.6985 40.1841C72.479 38.5127 72.2758 32.808 72.2758 32.808L71.1584 35.5936L72.604 39.627H72.5962Z" fill="#6C1228"/>
<path d="M77.7222 58.9774C69.5097 58.6243 66.4623 54.9284 63.2273 53.3277C60.0001 51.719 47.6072 46.7598 47.6072 46.7598C47.6072 46.7598 60.1173 53.9476 61.6098 55.1011C65.9622 58.4831 77.7222 58.9774 77.7222 58.9774Z" fill="#6C1228"/>
<path d="M113.19 27.5505C113.19 27.5505 105.603 27.37 104.04 26.3813C102.477 25.3926 100.774 22.552 97.4448 23.627C97.4448 23.627 102.329 21.6967 104.313 23.1091C106.298 24.5294 110.416 27.2366 113.19 27.5505Z" fill="black"/>
<path d="M102.094 23.6191C102.094 23.6191 102.313 23.7133 103.321 24.7099C104.329 25.7064 106.368 26.0674 107.08 26.036C107.08 26.036 105.993 25.6123 105.024 24.8276C104.056 24.0429 103.985 23.7368 102.094 23.6191Z" fill="#84152C"/>
<path d="M126.286 54.748C126.286 54.748 118.277 54.2379 108.658 55.9485C96.0695 58.1928 87.7085 53.6651 84.9189 50.6519C84.9189 50.6519 90.3575 56.0741 108.72 53.5474C122.246 51.6876 124.161 52.4802 125.059 52.6921C125.575 52.8098 130.49 53.9319 133.303 54.285C134.28 54.4105 126.278 54.748 126.278 54.748H126.286Z" fill="black"/>
<path d="M89.4668 26.6481C89.4668 26.6481 97.0854 35.3739 103.001 36.8334C105.267 37.3905 108.369 37.9555 111.51 39.2581C111.51 39.2581 107.181 38.1595 103.087 39.1953C98.8826 40.2547 94.9756 40.7176 91.4515 40.2076C91.4515 40.2076 94.4287 40.2939 97.6558 39.3915C99.4062 38.905 100.578 37.8927 100.578 37.8927C100.578 37.8927 98.7654 37.1473 96.9526 35.8133C92.1392 32.2822 89.4668 26.6481 89.4668 26.6481Z" fill="#6C1228"/>
<path d="M71.9088 35.1071C71.9088 35.1071 71.6744 39.0228 77.3629 41.165C77.3629 41.165 74.1358 40.9531 72.8543 39.8702C71.565 38.7795 71.69 36.8492 70.4007 36.6059C70.1428 36.5588 70.6742 36.2136 71.0336 35.4681C71.5728 34.3617 71.5962 32.8943 71.7291 32.0939C71.7916 31.7094 72.3386 32.6354 72.276 32.8158C72.0338 33.5691 71.9088 35.1071 71.9088 35.1071Z" fill="#1B1C1C"/>
<path d="M91.7092 44.9942C91.7092 44.9942 102.258 47.16 112.151 44.0605C117.652 42.8049 118.707 42.4283 122.184 42.4518C125.653 42.4754 127.716 41.1179 129.302 40.5215C129.302 40.5215 125.489 44.5234 121.137 45.5278C116.784 46.5322 110.213 46.7206 106.485 48.5175C102.758 50.3145 105.321 47.1051 105.321 47.1051C105.321 47.1051 98.9137 47.3483 94.4207 46.2419C89.9355 45.1355 91.7092 44.9942 91.7092 44.9942Z" fill="#6C1228"/>
<path d="M86.9739 42.7501C86.9739 42.7501 95.4443 48.7922 110.861 46.2184C110.861 46.2184 112.487 45.8418 114.417 45.8339C114.417 45.8339 108.556 46.8854 107.267 48.0389C105.978 49.1846 96.0303 52.3626 87.0364 51.3582C87.0364 51.3582 99.0309 51.0443 104.11 48.0154C104.11 48.0154 88.6071 46.8383 85.3721 42.703C85.3721 42.703 95.8115 42.6324 97.8041 41.8712C97.8041 41.8712 91.7795 43.5897 87.2787 43.2287" fill="black"/>
<path d="M60.969 42.3341C60.969 42.3341 56.9135 40.4665 55.7336 40.137C53.9833 39.6583 52.8971 40.8275 50.678 39.5798C50.678 39.5798 52.1548 41.9104 54.9678 42.6244C56.3431 42.9776 55.9133 42.4204 60.9768 42.3263L60.969 42.3341Z" fill="black"/>
<path d="M52.311 40.6C52.311 40.6 52.4517 40.8982 54.0926 40.8432C55.7336 40.7883 55.8039 40.7255 58.9138 41.9026C58.9138 41.9026 57.1088 41.6515 55.9133 41.9183C54.7177 42.1851 52.311 40.6 52.311 40.6Z" fill="#84152C"/>
<path d="M70.635 40.6C70.635 40.6 79.1835 45.7397 79.5429 49.263C79.8164 51.8917 84.5673 52.8726 84.5673 52.8726C84.5673 52.8726 81.0979 52.441 77.1753 52.8726C74.0497 53.2178 69.4863 50.5185 69.4863 50.5185C69.4863 50.5185 75.7688 52.2998 76.6752 50.8167C78.9803 47.0737 70.6272 40.6 70.6272 40.6H70.635Z" fill="#6C1228"/>
<path d="M87.5132 52.1899C87.5132 52.1899 100.336 53.9947 110.51 51.5543C118.23 49.7024 128.888 51.0364 133.311 54.285C133.311 54.285 123.348 51.9309 111.947 53.1315C109.713 53.3669 97.601 55.8701 87.5132 52.1977V52.1899Z" fill="#6C1228"/>
<path d="M185.758 124.452C185.758 124.452 180.445 125.888 179.679 126.312C178.913 126.736 176.178 128.658 171.154 127.607C171.154 127.607 175.694 128.8 178.858 127.607C182.164 126.359 181.085 126.03 185.758 124.452Z" fill="#6C1228"/>
</g>
<defs>
<clipPath id="clip0_2410_44905">
<rect width="249" height="162" fill="white" transform="translate(0.0200195)"/>
</clipPath>
</defs>
</svg>
