<?xml version="1.0" encoding="UTF-8"?>
<svg width="200px" height="200px" viewBox="0 0 200 200" version="1.1" xmlns="http://www.w3.org/2000/svg" xmlns:xlink="http://www.w3.org/1999/xlink">
    <!-- Generator: Sketch 54.1 (76490) - https://sketchapp.com -->
    <title>juniata</title>
    <desc>Created with Sketch.</desc>
    <g id="juniata" stroke="none" stroke-width="1" fill="none" fill-rule="evenodd">
        <g id="juniata_BGL">
            <g id="juniata" transform="translate(0.000000, 34.000000)">
                <g id="g10" transform="translate(100.112231, 66.298544) scale(-1, 1) rotate(-180.000000) translate(-100.112231, -66.298544) translate(0.224467, 0.305279)">
                    <g id="g12" transform="translate(0.404040, 0.000000)">
                        <path d="M55.3019066,55.7656552 L55.5066204,55.7656552 L82.2159351,101.964083 L73.7517378,101.964083 L91.0909068,131.954654 L134.517617,131.954654 L114.025137,96.5095374 C115.412343,97.5856317 116.87452,98.5966305 118.409874,99.5416361 C125.209873,103.723454 132.398201,105.94433 139.888212,105.94433 L199.106168,105.94433 L175.815933,65.6601555 L142.53333,65.4567885 L148.669357,76.0695828 L133.24085,76.0695828 L133.138493,75.8944987 C129.567225,69.8127929 120.835463,54.6244655 106.918067,30.2854762 L106.614588,29.7548365 L121.929963,29.7548365 L127.942533,39.9321202 L161.187875,40.1352179 L137.983835,0 L85.7364737,0 C78.6271585,0 71.6004471,2.07175752 68.3102115,8.75685724 C65.5802453,14.303434 66.7416369,20.3600444 69.5191902,26.0102799 L18.3415933,26.0102799 C11.1468909,26.0102799 3.95412336,28.29863 1.15144329,35.6327264 C-1.36556674,41.8518508 0.719519623,48.6531974 4.31063962,54.8641962 L23.7301902,88.4538698 L66.043096,88.6303008 L48.5288428,58.7120075 L41.4972829,58.7120075 L39.8030518,55.7818168 L40.4156219,55.7795721 C43.4059248,55.7723892 51.4267103,55.7674509 55.3019066,55.7656552" id="path14" fill="#0C1E3D" fill-rule="nonzero"></path>
                        <path d="M35.5097634,53.3153746 L36.1963178,53.3122321 C40.2221763,53.2942748 50.3497182,53.2848472 56.9387191,53.2830514 L86.5185164,104.446238 L78.054319,104.446238 L92.5230055,129.4725 L130.215036,129.4725 L71.8334438,28.4923899 L18.3415933,28.4923899 C11.530415,28.4923899 5.72058347,30.6307961 3.4709943,36.5158689 C1.36451175,41.6579114 2.97296064,47.5910201 6.45939378,53.6219964 L25.1658804,85.9771022 L61.7028043,86.1297397 L47.1052738,61.1941623 L40.0648699,61.1941623 L35.5097634,53.3153746" id="path16" fill="#FFFFFF"></path>
                        <path d="M85.7364737,2.48263967 C78.9777758,2.48263967 73.1991003,4.44391908 70.536923,9.85355755 C67.9762048,15.0568346 69.4383821,21.0869131 72.9400655,27.1429398 L104.857461,82.3492684 C108.421546,88.514027 113.398875,93.5420852 119.710884,97.4271581 C126.168796,101.399324 132.912679,103.462175 139.888212,103.462175 L194.803587,103.462175 L174.378896,68.1337806 L146.851175,67.9654304 L152.971489,78.5521866 L131.824015,78.5521866 C128.76902,73.411446 118.951288,56.3402904 102.3358,27.2718287 L123.346349,27.2718287 L129.364755,37.4580911 L156.870479,37.6264413 L136.551736,2.48263967 L85.7364737,2.48263967" id="path18" fill="#FFFFFF"></path>
                        <path d="M58.9845103,49.7360257 L92.6653175,107.992814 L84.2006713,107.992814 L94.5692457,125.926372 L124.068684,125.926372 L69.7881015,32.0386075 L18.3415933,32.0386075 C12.1003364,32.0386075 8.24704805,33.9523673 6.78361375,37.7818172 C5.27111098,41.3769687 6.18671141,46.0646453 9.52951716,51.8469123 L27.2167894,82.439953 L55.50258,82.5575737 L45.0725017,64.7402902 L38.0187196,64.7402902 L29.4128837,49.8545442 C29.0244662,49.7755319 44.020605,49.7360257 58.9845103,49.7360257" id="path20" fill="#AC9C66"></path>
                        <path d="M150.702129,34.0417949 L134.505945,6.02832757 L85.7364737,6.02832757 C79.4936007,6.02832757 75.4882136,7.82406266 73.7185167,11.4190345 C71.9497176,15.0141859 72.7124561,19.664197 76.0098746,25.3679006 L107.927719,80.5746332 C111.180693,86.2011202 115.72929,90.8121189 121.569021,94.4071806 C127.539391,98.078561 133.647135,99.915598 139.888212,99.915598 L188.657683,99.915598 L172.325922,71.6673383 L153.019525,71.5497176 L159.117841,82.0983144 L129.843319,82.0983144 C129.041523,81.0056096 117.835238,61.5483711 96.2244645,23.7261498 C96.7375958,23.7261498 110.235687,23.7261498 125.370143,23.7261498 L131.395283,33.9244885 L150.702129,34.0417949" id="path22" fill="#AC9C66"></path>
                        <path d="M48.1077429,39.6062841 C47.2175072,39.9070697 41.2173727,42.5298306 44.9795724,53.1286182 C48.9764298,63.7117829 60.5732869,71.0159354 68.5652059,75.4998859 C68.9243529,75.7714908 69.0437693,76.2868668 69.0680117,76.5881013 L69.0747457,76.6680116 L69.1425347,76.7097624 C70.4273832,77.4971922 76.4282809,80.7968554 83.8051606,83.484173 C92.0412996,86.4839485 101.941187,89.1999978 113.306394,85.3373716 C114.666215,84.8749698 115.669133,84.4013447 116.588998,83.8891113 C117.494049,83.3854076 118.318291,82.8435445 119.331984,82.2379328 C121.324801,81.0460137 124.072275,79.5946108 129.730188,77.6722764 C131.233218,77.1622876 132.628055,76.7380452 133.677662,76.2554414 C134.392365,75.9268219 135.305945,75.4267097 135.931759,74.6056098 L135.97755,74.5459016 L136.052971,74.5436569 C136.39416,74.5342293 136.736248,74.5216592 137.08058,74.5063954 C144.28058,74.1791227 151.16453,65.8558906 144.668908,56.6361378 C142.351961,53.3472489 139.46397,50.8722771 136.984957,49.6067328 C130.81975,46.459707 127.000221,46.6455656 126.922556,46.649606 C126.922556,46.649606 128.420199,47.6906834 129.476091,49.0505038 C130.413016,50.2581357 131.391243,51.8684611 132.169694,53.7346788 C132.756001,55.1425351 132.560715,56.3995497 130.530636,57.020874 C128.123454,57.7575743 121.187876,54.9858572 118.726372,51.482827 L118.647808,51.3288427 C118.604262,51.2408517 118.543656,51.1218842 118.479458,50.9768786 C118.367225,50.7250268 118.237932,50.3771031 118.158022,49.9456778 C117.99865,49.0958461 117.986978,47.7149259 118.971939,45.9133546 C119.912006,44.1943872 121.338269,43.5174849 122.507292,43.2435455 C125.718964,42.4921201 128.364082,43.837844 128.364082,43.837844 C126.630749,39.9137139 123.129065,37.675375 119.685743,37.0244211 C113.057685,35.7714469 107.285295,37.676228 103.951064,43.2107733 C103.366552,44.0084837 102.729066,45.2143648 102.263522,46.7232312 L102.225362,46.8471369 L102.096967,46.8336689 C97.6740716,46.3703692 91.2210976,45.1946117 88.236137,44.2325915 C87.0760921,43.8581807 86.8466869,42.6599316 86.9418609,42.4251392 C87.9012324,40.0708407 95.9820402,39.9119631 98.9194139,40.4098306 C100.173735,40.515375 101.265093,40.706531 102.13782,40.9701 L102.878561,41.1937139 L102.623566,40.4636578 C102.593039,40.3752627 94.9952838,31.0149936 77.390346,32.6909532 C68.598876,33.5272719 62.1279446,35.648484 57.7741849,40.9687083 C57.5007842,41.4158912 57.2417494,42.1059473 57.0536462,42.6760483 L57.0240165,42.7667329 L56.9292915,42.7819967 C54.8161602,43.1223783 53.5227821,44.1307284 52.7375969,45.1820415 C52.4094263,45.6210987 52.1723893,46.0646453 52.0013455,46.4619517 L51.8549931,46.8008967 L51.7117832,46.4606049 C50.8731749,44.474073 50.7627372,42.6769462 50.8893366,41.3090899 C50.9652064,40.4901449 51.1259246,39.8230742 51.2686856,39.3616601 C51.3095386,39.2287308 51.3571255,39.0944098 51.4033657,38.9714917 L51.5039269,38.7056332 L51.225139,38.760852 C50.5072939,38.9046904 49.2296284,39.1919182 48.1077429,39.6062841" id="path24" fill="#FFFFFF" fill-rule="nonzero"></path>
                        <path d="M96.5405139,61.9232308 C96.5405139,61.9232308 112.760491,61.8123441 118.193039,67.2695831 C122.041299,71.1358007 127.381815,72.6150375 133.42581,72.7982024 C133.440625,73.6938253 131.313577,74.848483 127.4936,75.878786 C116.14186,78.9391675 116.959369,81.3957331 111.160042,82.9566758 C93.9151492,87.5977531 81.9106601,77.3364739 81.9106601,77.3364739 C81.9106601,77.3364739 80.3950597,78.0067321 77.8828263,76.413915 C75.6390553,75.4778881 73.1892238,74.4924785 70.489785,73.0056098 C62.8538705,68.7986515 42.931761,56.5557786 47.3670022,43.3643536 C48.1265981,40.9513346 50.4228944,39.7925467 50.4228944,39.7925467 C50.4228944,39.7925467 41.8136016,42.4300326 45.9676756,52.1701446 C50.5683489,62.5674507 60.7147011,70.4161599 68.6244652,74.77396 C68.6509523,74.7887748 68.7371476,74.8493808 68.8987637,74.9777759 C69.0505033,75.0980902 69.2314236,75.2466872 69.4231184,75.4029162 C69.8038142,75.7122316 70.2585841,76.0776636 70.6231183,76.3003348 C71.1070689,76.617731 76.9342293,79.8796837 84.6392796,82.6859688 C92.6096498,85.5896724 102.587203,88.1019058 113.416832,84.4210978 C114.787876,83.9555535 115.798426,83.477439 116.725474,82.9616141 C117.63232,82.4570125 118.457909,81.9147005 119.4725,81.3077421 C121.45544,80.122108 124.192589,78.6747455 129.841074,76.7564515 C131.292028,76.2635222 132.641972,75.858135 133.655664,75.3921418 C134.66397,74.9283932 135.787202,74.2204246 135.954654,72.9346783 L135.968122,72.8031407 C136.338493,72.794162 136.711108,72.780694 137.085518,72.7636345 C143.069806,72.4920296 148.632544,65.4280567 143.361164,57.9461265 C139.341411,52.2406272 132.99214,49.9869797 132.99214,49.9869797 C132.99214,49.9869797 139.034789,57.5838369 132.443992,59.6004474 C128.699436,60.7465754 120.147247,57.0181804 117.225586,52.5068449 C117.180693,52.2168337 115.0725,49.3346789 117.405609,45.0662166 C119.824015,40.6432313 124.968347,41.3678553 124.968347,41.3678553 C124.968347,41.3678553 123.305047,40.196228 120.423342,39.6515366 C113.612567,38.3636803 107.846462,40.8740282 105.332433,48.3937137 C101.242646,47.2601559 85.9892234,45.6826027 86.1656544,43.4625803 C86.4116701,40.365476 92.3277194,39.1433436 101.756226,40.2837251 L101.142085,39.9421314 C101.142085,39.9421314 96.1566755,35.7184727 90.7187407,34.6712 C87.7925904,34.1072045 83.5214345,33.8962506 78.3833875,34.1992809 C72.0372597,34.7480126 63.0653183,36.8323672 59.7705933,42.4040842 C59.3759806,43.0455657 58.8695833,43.6000438 58.8695833,43.6000438 L58.3124565,44.4686409 C58.2298526,44.4726813 55.9070693,44.6150831 54.3209863,47.1973052 C53.8056103,48.0363624 53.5726137,48.4655431 53.503029,49.9447799 C53.1070694,49.5591458 52.8664409,49.5564522 52.3928157,49.0338933 L50.6482591,47.0478103 C50.3411884,52.4641962 54.3788988,55.6049369 56.9782253,57.6264857 C53.6983152,50.3138035 59.5182926,50.1194151 59.6246899,50.2563399 C60.6118952,55.4289548 62.1265978,54.5791232 62.1265978,51.3257002 C62.1265978,51.1155992 62.1337807,50.9059471 62.1472487,50.6971929 C62.2033654,48.4094264 62.9818166,46.412569 63.8527481,45.0056105 C66.5885505,40.378944 78.6909071,33.9376422 93.2556655,37.8761382 C86.7371471,37.5887308 83.0944985,40.1894042 82.3730619,43.3391235 C81.3872034,47.6399539 93.3315353,51.8747462 104.215935,52.404488 C102.692702,57.9600434 101.623342,60.3384946 96.5405139,61.9232308 Z M95.9169449,38.1363851 L96.0592569,38.1836851 L95.9169449,38.1363851 L95.9169449,38.1363851 Z" id="path26" fill="#AC9C66" fill-rule="nonzero"></path>
                        <path d="M131.26195,70.4368108 C131.26195,70.4368108 129.824015,70.0139152 128.198874,70.408079 C126.313802,70.8655426 123.68709,67.4127929 123.68709,67.4127929 C123.68709,67.4127929 126.105047,69.059482 128.469133,68.8327704 C130.117168,68.6747458 131.26195,70.4368108 131.26195,70.4368108" id="path28" fill="#0C1E3D"></path>
                        <path d="M113.185631,70.3313114 C113.411894,69.9663282 113.953757,69.5353518 115.195957,69.2143642 C115.195059,69.2130173 113.513353,68.8475853 111.859032,69.4029163 C110.55443,68.7227817 108.798202,68.6285056 107.246686,69.2772149 C104.963409,70.2316481 103.987427,72.4327704 105.067113,74.1930397 C105.217506,74.4386064 105.400222,74.6626244 105.609425,74.8641957 C102.312006,76.8619509 96.2590324,74.6918051 96.2590324,74.6918051 C96.2590324,74.6918051 101.408303,78.2199756 106.127943,77.2987635 C104.524352,78.7102113 101.276316,78.115374 101.276316,78.115374 C101.276316,78.115374 110.843993,83.3863054 112.586754,73.9299645 C112.88709,72.299886 113.366103,71.4531969 114.444442,70.7290667 C115.380917,70.0992126 117.096742,69.9591453 118.100109,69.934005 C120.929739,72.1768781 124.668459,72.6819286 127.667337,72.7842855 C132.248706,74.5755312 119.425811,75.0496053 116.251849,78.1032528 C105.797079,86.9212099 92.4641952,80.6092011 86.7236791,77.2426468 C84.6639709,74.4763169 89.9097621,73.3629611 92.3223321,73.0410756 C76.2733988,73.5007838 65.1542071,68.1382699 58.2810311,62.9602678 C52.3277204,58.4758683 49.4859696,53.0653185 49.3966318,52.9113343 C53.0653185,61.8109973 61.257462,68.3762048 68.9786739,72.6298523 C71.6781127,74.1171699 74.2765414,75.3189656 76.5203123,76.2549925 C74.2271586,75.72974 72.2913562,75.0540946 72.2913562,75.0540946 C72.2913562,75.0540946 93.9079662,89.4029158 112.189447,83.111109 C117.868011,81.1564514 120.398201,78.2927029 129.015036,75.4522989 C132.222219,74.3955088 133.64893,73.5057221 133.624239,72.7950599 C127.495844,72.638831 122.079009,71.1703686 118.187202,67.2606044 C116.874071,65.941637 114.930637,64.9476976 112.738493,64.1988761 C105.62828,62.6657672 100.095171,63.5052734 100.095171,63.5052734 C100.095171,63.5052734 105.091804,63.690683 107.907966,64.1598188 C112.056114,64.8511768 114.454318,66.0300769 116.812118,68.7111094 C116.974183,68.8956212 117.141187,69.0716032 117.312679,69.2395044 C116.616383,69.1286178 115.697865,69.1851835 114.575081,69.6861935 C113.90617,69.9842856 113.534902,70.1553293 113.185631,70.3313114" id="path30" fill="#0C1E3D" fill-rule="nonzero"></path>
                        <path d="M66.9333317,54.4224453 C66.9333317,54.4224453 72.8386065,57.3234554 72.8273831,57.1928156 C62.9831634,49.8599314 71.5461262,42.8512672 72.272501,42.4058351 C62.7066202,46.5396172 66.9333317,54.4224453 66.9333317,54.4224453 Z M105.387203,61.2713789 C105.387203,61.2713789 112.448033,60.3991006 118.337595,61.9766539 C125.755777,63.9631858 133.18159,62.7277201 135.19012,57.5142522 C136.601568,54.5221086 132.986753,49.978001 132.986753,49.978001 C132.986753,49.978001 139.336023,52.2316485 143.355776,57.9371478 C148.627157,65.4190781 143.063969,72.4830509 137.079682,72.7546559 C136.514924,72.7802451 135.954205,72.7973046 135.398425,72.8049365 C135.199997,74.0457894 134.098762,74.7358006 133.109761,75.1910194 C132.096517,75.6570127 130.746125,76.0623999 129.294722,76.5553292 C123.646686,78.4740721 120.909537,79.9209857 118.926596,81.1066197 C117.911557,81.7135782 117.086417,82.2558902 116.179571,82.7604918 C115.252073,83.2767656 114.241972,83.7539822 112.870929,84.2199754 C102.04085,87.9003345 92.0637463,85.3885501 84.0929272,82.4852954 C76.3887747,79.6790104 70.8911318,76.1203124 70.4071812,75.8029162 C70.042647,75.580245 69.587877,75.2148129 69.2076301,74.9054976 C69.0154865,74.7492686 68.8345662,74.6006715 68.6832755,74.4808062 C68.5212104,74.3519622 68.4350151,74.2913562 68.4080791,74.2765414 C60.498315,69.9187412 50.6123444,62.8219962 46.792367,52.6989886 C43.3120977,42.894724 48.3582479,40.9369687 48.6397294,40.8422885 L49.4271593,40.5772829 L49.3652064,41.4060596 C49.1964073,43.6623109 49.7225577,45.564982 50.5351278,47.1506161 L50.5768786,48.6267103 C50.906396,55.9604924 60.2451163,59.5946113 60.4938256,59.7481467 C56.5750828,54.7613903 58.7748582,51.7283938 58.8830513,51.8127933 C60.2953969,58.4143644 67.9389433,60.2922544 68.1095381,60.3618391 L67.8698075,60.2316483 C65.2736235,58.8839491 63.4433205,56.8866428 62.8202004,54.3896732 C62.7797964,54.2271591 62.7452285,54.065094 62.7155989,53.90258 C62.3209861,52.1351278 62.5364743,50.452524 62.9355764,49.205386 C63.9708177,45.7319854 70.3519623,39.6322773 79.6215468,38.0295838 C79.4927028,38.0727263 79.3652056,38.1179788 79.2390553,38.1648026 C73.5200879,40.2877655 73.7822653,48.7200886 102.915373,53.7777764 C101.467562,57.5268224 99.6763163,60.1907954 97.6139145,59.4280569 C94.7820403,61.0662162 94.5714903,62.653646 94.6918046,62.7268222 C95.3638584,62.4193026 96.0193018,62.1499423 96.6585834,61.9138032 L96.5355756,61.9138032 C101.124128,60.4835002 102.442197,58.4044879 103.775979,53.9245778 C103.961389,53.3014577 104.147697,52.6316485 104.342534,51.909763 C104.534678,51.2004477 104.735351,50.4421985 104.953533,49.6282816 C105.01773,49.388551 105.085519,49.1533097 105.155553,48.9216598 C106.413914,44.7874736 108.611445,42.0848923 111.413241,40.6302571 C113.990121,39.2929283 117.077887,39.010953 120.417505,39.6422437 C123.29966,40.1867554 124.96296,41.3585624 124.96296,41.3585624 C124.96296,41.3585624 119.818179,40.6339384 117.400222,45.0576869 C115.066664,49.3257002 117.174857,52.207855 117.21975,52.4983152 C120.14186,57.0096507 128.693599,60.7371478 132.438156,59.5919177 C132.814363,59.4765417 133.149267,59.3432084 133.446461,59.1946113 C131.730636,60.3672263 128.597528,61.4855203 123.397079,60.0332196 C112.061052,56.8668897 111.254767,49.3351278 114.564756,47.3337811 C114.564756,47.3337811 110.538718,47.6413007 109.489111,56.8821535 C109.121434,60.1207617 105.387203,61.2713789 105.387203,61.2713789 L105.387203,61.2713789 Z M50.7461267,47.5434332 C51.6439942,49.1474735 52.817956,50.4071817 53.7997742,51.3634106 C53.8698079,49.8841738 54.2325463,48.1369236 54.7483712,47.2978664 C56.3340053,44.7155544 58.6572376,44.5733322 58.7393925,44.5692918 L59.2534216,44.5428047 L59.298315,44.9171706 C59.508416,43.9937587 59.8029166,43.1460371 60.1975294,42.5045556 C63.4922543,36.9328835 72.3479219,35.2439497 78.6936007,34.6959363 C83.8320967,34.3932202 88.0363614,34.4856557 90.9625118,35.0496063 C96.4004465,36.0974177 100.858359,39.8177768 100.858359,39.8177768 L99.3562265,39.5556444 C97.1896721,39.1766545 88.012119,39.0531977 85.8909069,41.7876533 C84.8273828,43.1591908 85.1308621,44.8090224 88.635688,46.1836128 C92.0839483,47.5366991 99.8931513,48.439056 104.494722,48.8624006 C104.21773,49.8778888 103.919189,50.8852961 103.600446,51.8522995 C94.5221076,51.1003354 79.5771024,48.1423108 84.6006713,41.1586522 C86.9705927,37.8638823 97.3966306,38.3075636 97.3966306,38.3075636 C97.3966306,38.3075636 96.8812546,38.1849598 96.0044869,38.0161158 C94.532882,37.4603807 89.9434321,36.0691798 81.4989879,36.3743201 C79.1425345,36.4592135 75.8980901,37.2353751 72.0107726,38.4517162 C67.242647,40.0874962 60.7658795,43.0800887 59.3028044,47.9892244 C59.1227819,48.5571256 59.0585844,49.2646452 59.0742971,50.0143646 L58.9678998,49.7351278 L58.5786742,49.8536463 C58.5158235,49.8729505 56.7591456,50.4264858 56.0359133,52.7129055 C55.800672,53.4563399 55.8563398,54.8673387 56.0861939,56.0170581 C54.1916934,54.9122321 51.1259246,52.086194 50.7461267,47.5434332 L50.7461267,47.5434332 Z M48.1077429,39.6062841 C47.2175072,39.9070697 41.2173727,42.5298306 44.9795724,53.1286182 C48.9764298,63.7117829 60.5732869,71.0159354 68.5652059,75.4998859 C68.9243529,75.7714908 69.0437693,76.2868668 69.0680117,76.5881013 L69.0747457,76.6680116 L69.1425347,76.7097624 C70.4273832,77.4971922 76.4282809,80.7968554 83.8051606,83.484173 C92.0412996,86.4839485 101.941187,89.1999978 113.306394,85.3373716 C114.666215,84.8749698 115.669133,84.4013447 116.588998,83.8891113 C117.494049,83.3854076 118.318291,82.8435445 119.331984,82.2379328 C121.324801,81.0460137 124.072275,79.5946108 129.730188,77.6722764 C131.233218,77.1622876 132.628055,76.7380452 133.677662,76.2554414 C134.392365,75.9268219 135.305945,75.4267097 135.931759,74.6056098 L135.97755,74.5459016 L136.052971,74.5436569 C136.39416,74.5342293 136.736248,74.5216592 137.08058,74.5063954 C144.28058,74.1791227 151.16453,65.8558906 144.668908,56.6361378 C142.351961,53.3472489 139.46397,50.8722771 136.984957,49.6067328 C130.81975,46.459707 127.000221,46.6455656 126.922556,46.649606 C126.922556,46.649606 128.420199,47.6906834 129.476091,49.0505038 C130.413016,50.2581357 131.391243,51.8684611 132.169694,53.7346788 C132.756001,55.1425351 132.560715,56.3995497 130.530636,57.020874 C128.123454,57.7575743 121.187876,54.9858572 118.726372,51.482827 L118.647808,51.3288427 C118.604262,51.2408517 118.543656,51.1218842 118.479458,50.9768786 C118.367225,50.7250268 118.237932,50.3771031 118.158022,49.9456778 C117.99865,49.0958461 117.986978,47.7149259 118.971939,45.9133546 C119.912006,44.1943872 121.338269,43.5174849 122.507292,43.2435455 C125.718964,42.4921201 128.364082,43.837844 128.364082,43.837844 C126.630749,39.9137139 123.129065,37.675375 119.685743,37.0244211 C113.057685,35.7714469 107.285295,37.676228 103.951064,43.2107733 C103.366552,44.0084837 102.729066,45.2143648 102.263522,46.7232312 L102.225362,46.8471369 L102.096967,46.8336689 C97.6740716,46.3703692 91.2210976,45.1946117 88.236137,44.2325915 C87.0760921,43.8581807 86.8466869,42.6599316 86.9418609,42.4251392 C87.9012324,40.0708407 95.9820402,39.9119631 98.9194139,40.4098306 C100.173735,40.515375 101.265093,40.706531 102.13782,40.9701 L102.878561,41.1937139 L102.623566,40.4636578 C102.593039,40.3752627 94.9952838,31.0149936 77.390346,32.6909532 C68.598876,33.5272719 62.1279446,35.648484 57.7741849,40.9687083 C57.5007842,41.4158912 57.2417494,42.1059473 57.0536462,42.6760483 L57.0240165,42.7667329 L56.9292915,42.7819967 C54.8161602,43.1223783 53.5227821,44.1307284 52.7375969,45.1820415 C52.4094263,45.6210987 52.1723893,46.0646453 52.0013455,46.4619517 L51.8549931,46.8008967 L51.7117832,46.4606049 C50.8731749,44.474073 50.7627372,42.6769462 50.8893366,41.3090899 C50.9652064,40.4901449 51.1259246,39.8230742 51.2686856,39.3616601 C51.3095386,39.2287308 51.3571255,39.0944098 51.4033657,38.9714917 L51.5039269,38.7056332 L51.225139,38.760852 C50.5072939,38.9046904 49.2296284,39.1919182 48.1077429,39.6062841 L48.1077429,39.6062841 Z" id="path32" fill="#0C1E3D" fill-rule="nonzero"></path>
                        <path d="M136.640176,71.7921419 C142.80269,70.2823776 144.881702,66.7272711 142.877213,61.1263733 C142.877213,61.1263733 145.522331,68.2347907 134.764082,71.5366985 C134.618178,71.8002227 136.640176,71.7921419 136.640176,71.7921419" id="path34" fill="#FFFFFF"></path>
                        <path d="M107.947023,46.9768787 C107.947023,46.9768787 107.454543,42.8637026 116.202466,41.5488205 C115.900334,41.5753076 109.050053,43.9949708 108.6303,48.7380459 C108.695845,48.5800212 107.947023,46.9768787 107.947023,46.9768787" id="path36" fill="#FFFFFF"></path>
                        <path d="M111.310884,69.6363619 C111.310884,69.6363619 109.355777,68.67295 107.088213,70.2805819 C105.171715,71.6395044 106.848033,74.4556659 106.848033,74.4556659 C106.848033,74.4556659 108.84938,74.4606042 109.708639,73.4980902 C108.860603,73.539841 107.988774,72.9647569 107.703252,72.1441059 C107.39663,71.2646447 107.879234,70.4368108 108.781591,70.2944988 C109.340065,70.2065078 109.929066,70.4026918 110.368572,70.7730622 C110.735351,70.0395044 111.310884,69.6363619 111.310884,69.6363619" id="path38" fill="#AC9C66"></path>
                        <path d="M109.247584,72.3762047 C109.406058,72.4453405 109.576653,72.4704808 109.727046,72.435464 C110.043544,72.3613899 110.149043,72.0498298 109.962287,71.7391677 C109.815037,71.4949477 109.530861,71.323455 109.26195,71.2974168 C109.425811,71.763859 109.35039,71.9820408 109.247584,72.3762047" id="path40" fill="#FFFFFF" fill-rule="nonzero"></path>
                    </g>
                </g>
            </g>
        </g>
    </g>
</svg>