<svg width="194" height="200" viewBox="0 0 194 200" xmlns="http://www.w3.org/2000/svg"><g fill="none" fill-rule="evenodd"><path d="M108.663 52.133l13.343 14.678s4.804.534 6.406 1.868c1.6 1.333 4.803 2.934 6.938 11.474 0 0 17.347 16.548 24.82 22.151 7.471 5.606 3.2 2.135 5.337 2.937 2.134.799 5.069 3.202 5.87 4.535.8 1.336 2.937 3.47 2.937 5.605 0 2.134 1.867 1.333 2.934 1.867 1.069.535 6.139 2.134 8.541 4.805 2.401 2.668 6.404 4.535 6.937 11.475.537 6.938-2.667 7.738-3.469 8.541-.8.8-1.6 1.867-3.2 1.333-1.603-.534-2.403-2.402-3.738-3.47-1.334-1.067-5.606-3.47-10.673-3.735-5.072-.267-16.814.266-21.085.534-4.269.267-9.34.533-12.275-.268-2.936-.8-4.27.535-4.27 1.868 0 1.334-.768 3.27 1.869 5.071 2.634 1.8 4.536 2.669 6.136 3.47 1.603.802 5.07 2.668 5.871 4.805.802 2.133 5.873 7.737 5.339 14.41 0 0-5.203-.068-6.939-1.068-.476-.274-2.267 1.266-2.267 1.266s-6.273-3.403-10.01-2.6c0 0-1.334-3.47-7.205-3.47 0 0-2.935-2.67-5.604-.8-2.669 1.868-2.136 2.4-2.136 2.4s0 3.738.802 5.337c.801 1.603 0 8.008 5.87 11.743 0 0 4.27 4.273 10.409 4.273 0 0 10.674-.803 13.076 0 2.402.798 5.07 2.666 7.74 2.932 2.668.268 5.336.802 7.206-1.066 0 0 .267 7.472-5.338 11.207-5.604 3.736-5.604 2.672-7.472 2.136-1.867-.532-3.47-1.601-6.404-.8-2.938.8-5.871.268-9.342-1.336-3.469-1.601-12.274-7.472-13.611-9.339-1.333-1.868-7.473-14.143-7.473-20.283 0 0-2.134-2.934-6.937-4.803-4.804-1.868-22.418-8.808-25.62-10.14-3.2-1.335-2.134 31.492 1.068 35.226 0 0-1.067 1.867-9.34-.267s-17.88-7.472-22.416-11.743c-4.538-4.268-14.68-14.142-18.416-16.544-3.735-2.403-15.477-10.408-31.49-13.079 0 0 14.678-50.437 62.982-80.326 0 0 2.668-1.602.267-2.403-2.402-.8-18.95-7.206-20.817-8.807-1.87-1.6-12.277-11.207-13.877-13.342-1.6-2.134-9.607-10.141-17.347-31.757 0 0-3.202-8.006 1.601-5.072 4.805 2.936 8.007 5.339 9.876 6.671C25.933 11.57 37.94 20.641 43.015 24.38c5.07 3.735 10.673 6.938 15.742 8.271 5.072 1.336 13.612 5.607 18.416 9.608 4.804 4.003 10.942 7.207 10.942 7.207s-3.47-8.008-5.07-11.743c-1.602-3.736-6.139-14.946-7.74-16.545-1.6-1.603-13.344-18.95-13.344-18.95S63.83.895 66.5 1.962c2.667 1.067 10.407 5.604 13.075 7.74 2.669 2.134 14.945 14.144 16.28 16.545 1.334 2.403 8.806 13.611 9.608 17.614.8 4.003 3.2 8.273 3.2 8.273" fill="#C11E43"/><path d="M191.392 141.535c2.803-4.138 3.07-9.074.267-14.278-2.802-5.204-8.806-8.407-10.275-9.207-1.467-.802-6.138-.934-6.537-4.004-.4-3.069-3.737-7.07-6.539-8.405-2.801-1.336-3.868-1.336-6.538-3.07-2.67-1.736-19.882-16.948-21.884-18.814-2.001-1.869-3.068-2.803-3.068-2.803s-2.535-6.805-4.002-9.206c-1.47-2.402-3.204-3.737-6.006-5.205-2.802-1.466-4.804-2-5.737-2.802-.935-.8-3.069-3.335-4.805-5.204-1.025-1.103-2.938-2.95-5.127-4.638a10.961 10.961 0 00-1.01-2.7c-1.334-2.536-2.269-5.737-3.47-8.54-1.199-2.802-4.667-9.874-8.138-14.545-3.47-4.67-11.077-13.343-16.013-17.212-4.937-3.87-11.742-8.807-16.549-9.874C61.162-.04 59.292-.708 60.76 2.095c1.469 2.802 3.069 4.136 4.537 7.473 1.468 3.334 6.671 9.206 7.473 10.406.799 1.203 2.668 3.736 3.736 6.14 1.018 2.288 5.668 10.514 8.643 20.288a20.199 20.199 0 00-.905-.674c-2.133-1.469-9.073-6.405-12.676-8.54-3.602-2.135-7.071-3.603-10.141-4.67-3.07-1.066-7.74-2.268-10.673-4.136-2.937-1.868-15.346-10.808-19.616-14.145-4.27-3.335-14.946-10.807-16.815-11.609-1.866-.8-2.802-.8-3.2-.533-.4.267-.668 2.268-.269 3.336.403 1.067 2.937 9.473 4.137 12.143 1.201 2.668 6.806 12.943 7.741 14.677.933 1.735 7.738 10.542 9.473 12.143 1.736 1.6 8.674 8.54 10.81 9.74 2.133 1.2 7.739 4.003 13.342 6.005 5.604 2.002 7.072 2.802 7.072 2.802s.935.4-.4 1.201c-1.335.8-4.671 2.535-14.277 10.275-9.608 7.738-17.346 16.944-19.75 19.48-2.4 2.537-14.945 20.417-21.883 35.628C.181 144.737.002 145.849.002 145.849l2.137.4s.355.221 1.111-2.313c1.05-3.518 10.676-27.888 24.151-44.433 13.242-16.258 23.62-24.286 29.09-27.89 5.47-3.602 12.408-6.937 19.348-.533 0 0 1.467 1.735 2.267 1.201.8-.533.67-.801.134-1.334-.532-.533-4.003-4.536-9.207-7.072-5.204-2.535-8.673-3.47-12.276-5.07-3.603-1.6-10.674-4.136-14.01-6.805-3.335-2.669-13.478-12.009-18.013-19.617-4.537-7.604-5.337-8.673-6.406-11.073C17.26 18.908 12.855 8.1 12.59 5.697c-.267-2.401.265-1.868 1.601-.934 1.336.934 5.605 4.27 7.339 5.338 1.736 1.067 3.738 2.27 5.072 3.202 1.334.934 16.012 13.477 18.147 14.811 2.132 1.334 8.672 4.536 12.008 5.47 3.336.937 6.538 1.87 9.34 3.204 2.802 1.333 15.346 7.471 22.817 16.411 7.474 8.942 5.072 4.938 5.338 7.475.267 2.534.934.265 2.136 0 1.201-.268 3.201-.268 4.402-.268 1.204 0 5.871.934 7.873 3.335 2.003 2.402 4.404 6.805 5.204 12.144.801 5.337 2.269 7.338 3.203 7.872.934.534 1.868 1.068 2.534 1.068.668 0 1.07-.133.934-.668-.132-.534-.8-.934-.8-1.601 0-.668.134-1.202.134-1.734 0-.533.133-1.067-.667-1.736-.8-.667-2.802-2.269-3.07-3.201-.266-.936-2.667-6.54-3.068-8.006-.4-1.468-2.936-5.071-4.404-6.139-1.467-1.066-5.204-2.268-6.538-2.535-1.335-.267-2.936-.4-3.47-1.068-.534-.667-3.869-3.203-4.803-4.136-.406-.407-1.875-1.75-3.58-3.259 2.538-.337 8.544-.856 13.054.99 5.872 2.402 12.41 7.606 19.215 21.616l2.802-1.067s.267-.133 0-1.201c-.268-1.068-.4-1.467.933-1.334 1.336.133 2.803.266 4.003 1.867 1.201 1.602 3.07 4.404 3.47 6.673.4 2.268-.4.667-.933 0-.535-.667-2.136-2.136-2.136-2.136s-2-.265-.801.936c1.202 1.2 5.872 5.737 5.872 5.737s8.14 6.537 11.208 9.206c3.07 2.669 15.344 13.078 18.014 16.012 2.668 2.936 3.468 2.67 1.067.135s1.734-.4 2.4.132c.67.534 3.472 2.937 4.273 5.605.8 2.668-.801 3.335-1.869 3.602 0 0 4.937 0 7.473.935 2.534.932 9.34 4.538 12.142 9.873 2.804 5.338.133 9.474-.4 10.41-.533.932-1.469 3.6-4.671 3.067 0 0-1.334-2.935-4.537-3.601 0 0-1.467-4.67-20.414-2.804-18.949 1.87-20.817 0-23.62-.534-2.802-.533-11.742-6.538-17.612-5.603-5.872.934-6.806 2.802-5.737 8.273 1.065 5.47 4.269 10.941 4.536 18.28.266 7.339.934 19.081 5.737 22.42 4.804 3.334 8.273 5.868 13.344 6.135 5.07.268 8.674-.4 11.074 0 2.402.402 6.94 2.137 9.342 2.536 2.401.4 4.135.266 4.135.266s1.601-1.068 1.069.803c-.536 1.866.132 3.202-4.538 7.204-4.67 4.004-5.201 2.135-5.201 2.135s1.331-1.602 0-2.804c-1.337-1.2-2.405-.265-4.005.268-1.602.535-2.536 1.335-4.538 1.335-2 0-8.006.534-13.21-3.203-5.203-3.736-8.94-5.738-11.874-13.476-2.936-7.74-3.47-10.007-3.47-12.278 0-2.267-.133-3.866-.4-4.935-.267-1.068-.8-3.202-2.536-6.005-1.735-2.801-2.668-4.67-3.336-5.204-.667-.534-2.001-.268-2.267.133-.27.402-.4 2.134-.4 2.534 0 .4-.134.67.932 1.337 1.068.665 5.071 3.468 5.205 8.673 0 0-9.608-4.804-20.016-8.673-10.407-3.87-19.346-8.14-25.085-17.081-5.737-8.94-11.075-22.283-6.938-34.159 4.135-11.875 4.535-10.942 4.535-10.942s-.534-1.469-1.333-.667c0 0-6.005 13.21-6.807 17.346-.8 4.136-2.535 11.342.669 20.817 3.201 9.474 8.407 14.277 12.142 16.68 3.736 2.4 10.409 6.27 13.878 7.34 3.47 1.066 8.805 2.934 13.61 4.535 4.804 1.6 9.208 3.203 12.009 5.205 2.801 2 4.671 3.602 4.404 5.87-.268 2.267 3.15 10.821 4.135 12.543 0 0 2.536 5.336 7.74 8.94 5.203 3.6 9.205 5.87 12.674 6.804 3.471.936 6.406.8 7.208.534.8-.268 1.2-.4 1.87-.268.666.136 1.2.404 2.534.803 1.333.399 2.67.665 3.869.399 1.2-.268 5.605-1.468 7.74-4.801 2.134-3.338 3.735-7.341 3.867-8.81.135-1.466-.132-2.268-.398-2.932-.268-.67.133-1.07.398-2.138.268-1.067.936-6.27.802-7.338-.133-1.068-.133-2.401-1.067-2.934-.934-.535-2.27-1.07-3.204-1.202-.933-.133-1.735-.133-1.735-.133s-2.958-2.189-5.203-2.937c-.8-.266-.8-.4-.8-1.2 0-.801-2.268-8.006-5.471-13.344 0 0 2.269 1.601 3.736 1.202 0 0 3.735 5.204 8.673 6.937 4.938 1.735 6.138 1.468 6.138 1.468s1.201 0 2.002.934c.803.934 4.671 2.136 5.603 1.735 0 0 10.276-13.478 10.142-19.615 0 0 3.202 1.067 6.004-3.068zm-84.997-90.603c-3.354-1.503-6.813-2.404-15.138-2.358-.978-.795-2.442-2.144-3.276-3.646-1.336-2.402-4.004-9.208-5.87-12.944-1.87-3.736-2.937-7.205-4.271-9.073-1.334-1.869-3.87-4.671-5.737-7.205-1.869-2.536-5.74-7.474-6.672-9.341-.934-1.868-3.068-4.27-.268-3.468 2.803.799 5.738 2 8.007 3.468 2.268 1.469 6.672 4.403 8.405 6.137 1.735 1.735 5.07 5.203 6.273 6.807 1.202 1.6 4.535 5.07 5.87 6.537 1.335 1.468 4.132 4.799 5.74 7.873 3.068 5.87 3.079 7.23 5.736 13.21.963 2.164 1.058.755 1.946 4.361a16.58 16.58 0 00-.745-.358zm32.458 95.238c-.2-.367-.334-.967-.334-.967s3.804 3.27 5.238 3.27c0 0 .7-.2 2.668 2.867 1.97 3.071 3.936 6.074 4.67 8.676.735 2.6 1.134 4.07.836 4.734-.302.668.066.87-.836.836-.9-.033-2.267-.268-2.5-.3-.234-.034-.768.166-1.136-1.034-.367-1.202-1.934-4.47-2.369-5.738-.432-1.27-2.167-4.871-2.502-5.839-.333-.966-1.6-3.469-2-4.069-.4-.6-1.535-2.067-1.735-2.436zm-18.781-11.341c.801-.034 1.468-.067 1.468-.067s4.17-.067 6.106 1.435c1.933 1.5 4.167 3.435 4.902 4.468.734 1.035 3.802 4.338 4.736 5.706.935 1.368 2.804 4.737 3.271 5.74.466.999 1.933 3.933 2.235 4.9.299.968.665 1.7.9 2.436.233.735.834 2.334.768 3.17-.066.835.233 1.635.1 2.069-.135.433.232 1.366-1.068.867-1.3-.5-2.869-1.436-4.57-1.801-1.702-.367-2.736-.335-3.169-.367-.434-.033-.801.032-1.534-.568-.735-.6-1.536-1.334-2.97-1.868-1.434-.535-2.202-.8-2.968-.933-.768-.135-.567-.203-1.336-.602-.766-.399-2.402-.87-2.835-1.066a1.666 1.666 0 00-1.334 0c-.366.166-.668.466-.966.499-.302.034-1.135.134-1.135-.432 0-.567-.267-2.835-.467-4.672-.201-1.835-1.633-8.573-2.035-9.708-.4-1.134-1.834-4.036-1.834-4.802 0-.769 0-2.235.899-2.97.901-.733 2.035-1.402 2.836-1.434z" fill="#000000"/><path d="M2.085 146.197l.8-1.558s15.045 3.833 21.447 7.17c6.405 3.336 18.016 12.81 19.882 15.076 1.869 2.27 9.075 10.008 15.344 12.944 6.273 2.937 10.874 4.62 12.943 5.205 1.994.564 4.005.8 4.805.934.8.132 3.504.268 3.904.268.4 0 1.2.018 1.467.552.267.533.4 1.448.4 1.448s.534.934-.534.8c-1.068-.133-5.459-.23-7.79-.746-2.327-.52-9.59-2.855-11.992-4.19-2.401-1.334-7.604-4.67-9.34-6.138-1.735-1.469-11.073-10.943-13.21-12.943-2.134-2.001-9.438-7.553-13.877-10.007-5.871-3.248-19.58-7.971-24.25-8.815" fill="#000000"/><path d="M79.931 152.198s-2.091 22.293 1.112 31.235l1.588 4.961s-.317.88 1.202.534c.651-.15.8-.534.8-1.2 0-.669-.521-1.225-.923-2.293-.4-1.07-2.135-6.805-2.267-12.81-.133-6.006.22-13.392.266-15.08.052-1.826.328-3.482.268-4.546-.06-1.013-2.046-.801-2.046-.801M177.248 126.723s-2.135-5.338-8.406-6.671c-6.272-1.336-7.74-.534-10.14.4-2.402.933-5.872 2.936-7.205 3.736-1.336.8-5.804 3.87-8.474 3.87-2.669 0-4.47.132-5.271-1.201-.801-1.336-1.2-2.669.801-2.669 2.002 0 4.524.604 8.539-.399 6.139-1.537 10.942-5.472 14.278-5.872 3.338-.402 9.076.4 11.076 1.334s6.003 2.934 5.87 7.205c0 0-.133 1.068-1.068.267" fill="#000000"/><path d="M185.657 138.464s-.402-1.601 0-2.934c.4-1.334.799-3.204.4-4.938-.4-1.735-1.07-4.404-3.738-6.938-2.669-2.535-4.537-2.535-5.47-3.602-.934-1.07-3.337-2.67-2.269-1.336 1.068 1.336 3.47 3.337 3.869 5.204.401 1.87.134 2.002 1.468 1.734 1.334-.265 2.003 1.069 1.467 1.069-.533 0-1.065.666-.133 1.201.935.533 2.002 1.466 1.468 1.066-.533-.4.134.535-.533.268-.666-.268-1.469-.135-.666.535.8.666 1.467 1.066 2 1.6.534.533.666 1.201 0 .801-.667-.4-2.269-.8-1.068.4 1.202 1.2 1.734 1.2 2.002 1.602.266.398.4.534.266 1.2-.132.667-1.2 1.2-.132 2.135l1.069.933M144.291 120.585s-6.272-2.668-8.273-5.204c-2.003-2.535-4.004-5.737-3.47-8.941.533-3.201-1.335.8-1.335.8s-1.334 4.406 1.068 8.14c2.401 3.737 8.407 5.872 10.674 5.872 2.27 0 2.27-.533 1.336-.667" fill="#000000"/><path d="M130.012 84.825s9.476 8.005 12.143 10.407c2.67 2.403 8.006 6.005 9.474 7.606 1.467 1.601 2.936 4.269 3.604 5.737.666 1.47 2.4 5.338 3.2 6.006.804.665 1.202 1.067 1.602 1.333.402.267.402.667-.4.667-.8 0-2.134-.134-3.07-1.601-.932-1.466-2.4-4.268-3.868-5.871-1.467-1.6-5.738-4.137-7.072-2.669-1.334 1.47-2.403 4.537.267 7.606 2.668 3.07 5.737 3.202 5.737 3.202s3.069 1.069.4 1.87c-2.67.8-6.537.133-9.205-1.335-2.67-1.469-6.272-5.073-6.94-6.939-.669-1.867-1.202-7.206.668-8.807 1.867-1.6 4.27-2.534 7.072-1.6 2.8.932 7.873 5.335 9.873 8.006 0 0-.334-1.734-2.802-4.337-2.47-2.603-4.737-3.87-7.07-5.205-2.337-1.333-3.27-2.134-7.674-1.534v-.535s2.001-.331 2.468-.666c.468-.334.734-.734.2-1.334-.533-.6-5.905-6.955-9.807-9.209-1.733-.998.934-.798 1.2-.798M83.044 86.492s1.734-.467 3.336.267c1.6.733 3.403 1.935 4.736 2.736 1.336.8 3.536 2.002 5.405 2.468 1.867.467 2.668.4 3.47.667.8.267 1.333.734 1.668 1.067.335.335 1.267-.066 1.267-.066s-.2-.267.133-.668c.335-.4.201-.6 1.202-1.2.999-.6 2.735-1.67 3.335-2.403.6-.732 2.334-2.734 2.401-3.2 0 0 4.536 3.934 7.606 2.933V87.96s-1.867.669-4.602-1.133c-2.736-1.802-3.871-2.869-6.071-6.472-2.204-3.603-4.471-8.405-5.204-9.873-.736-1.468-2.338-3.403-4.07-4.471-1.735-1.067-3.07-1.067-3.938-.933-.866.132-1.8.933-1.601 1.867.2.935.8 1.133 1.735 1.467.934.335 2.87 1.069 3.737 2.003 0 0-4.203 2.534-6.539 6.07-2.336 3.537-3.002 5.005-3.536 5.739-.533.733-1.467 2.2-2.135 2.334-.667.135-2.669.068-2.335 1.935" fill="#000000"/><path d="M92.917 88.76s-.534-10.54 8.073-13.21c0 0 .334 0 .201-.467-.134-.466-.4-1.267-.801-1.668-.4-.4-.467-1.334-1.735-1-1.265.333-5.07 3.47-6.137 4.87-1.068 1.4-3.403 4.603-3.135 6.672.266 2.068.065 3.069 3.534 4.804M104.072 85.967c-.484-.157-.652-.247-.938.323-.284.567-.612.715-.36.946.25.23.718.613 1.102.489.387-.124 1.402-1.365.196-1.758M105.483 84.597c.243-.061.601-1.44.601-1.44s-.48-1.561-.9-1.443c-.42.122-.482 1.803-1.08 2.404-.247.246 1.14.539 1.38.48" fill="#FFFFFF"/><path d="M85.314 71.014s-1.337-.935-2.737-1.4c-1.4-.47-2.602-.47-2.735-1.402-.133-.935 0-2.803-.535-4.07-.532-1.268-1.4-2.802-3.067-3.87-1.669-1.067-6.408-4.004-8.274-5.07-1.868-1.068-9.074-5.004-11.743-6.139-2.669-1.134-7.139-3.735-11.342-7.538-4.202-3.803-7.004-6.806-9.207-10.208-2.2-3.403-5.002-7.538-7.071-9.609-2.067-2.066-3.137-3.268-5.139-4.536-2-1.266-3.603-2.268-5.07-3.735-1.468-1.468-2.602-3.603-2.667-4.536-.068-.936.8-1.135 1.6.398.801 1.536 2.07 3.003 2.469 3.338.401.333 1.869 1.866 3.202 2.6 1.334.735 2.737 1.803 4.471 3.404 1.733 1.601 4.403 4.27 5.536 6.005 1.134 1.735 2.738 4.335 4.138 6.204 1.398 1.867 3.934 5.871 7.006 8.207 3.07 2.333 9.405 5.937 11.475 6.87 2.068.934 9.073 4.603 11.14 5.539 2.07.934 7.34 3.135 9.674 4.937 2.337 1.8 4.07 3.937 4.74 5.404.665 1.467 1.733 3.27 1.932 4.003.2.733 1.201 2.87 1.869 3.335.667.468.935.934.935.934s.066 1.401-.6.935M113.833 127.64c-1.333.892-2.626 1.927-3.343 3.378-.9 1.818-.6 4.054-.049 5.92a.54.54 0 00.716.26.54.54 0 00.25-.717c-.492-1.285-.45-2.72-.266-4.07.242-1.786 1.892-2.903 3.294-3.887a.528.528 0 00.142-.735.53.53 0 00-.744-.148" fill="#000000"/><path d="M108.554 130.277c-.024.34-.407.65-.467.99-.123.784-.107 1.51-.267 2.32-.15.725-.081 1.418-.048 2.125.04.944.617 1.669 1.025 2.487l.017.109.592-.636.073.068c-.34-.268-.808-.285-1.15-.56l-.432-.09a.546.546 0 00-.394.074l-.133.082a.511.511 0 00-.249.393l-.026.242c-.16 1.536 1.375 2.385 2.435 3.169.241.176.576.127.752-.116a.528.528 0 00-.117-.743c-.726-.6-1.853-1.041-2.011-2.077l.025-.35-.25.393.142-.092-.3.083.25.109h-.017c.218.1.443.191.667.274l.593.192a.58.58 0 00.183 0 .54.54 0 00.417-.633l-.109-.267c-.024-.192-.084-.393-.2-.534-.758-.883-.792-2.009-.716-3.078.091-1.324.55-2.625.784-3.934a.539.539 0 00-.534-.535.539.539 0 00-.535.535" fill="#000000"/><path d="M146.024 166.486c1.607.07 5.071.133 6.54.399 1.468.267 5.337 2.003 5.87 2.27.534.268 1.501.6 1.468 2.1-.034 1.504.168 4.37-.834 7.575-1 3.202-1.668 5.07-1.836 5.369-.166.302-.2 1.368-1.564.602-1.37-.769-2.838-2.203-5.741-2.503-2.902-.3-5.27-.2-7.637.233-2.37.434-3.838.268-4.372.101-.532-.166-.934-.701-.833-1.202.1-.498.8-4.27 2.034-7.204 1.235-2.935 2.702-5.872 3.736-6.538 1.035-.67 2.403-1.237 3.17-1.202" fill="#FFFFFF"/><path d="M135.885 181.066s1.066-4.638 1.934-7.007c.865-2.369 2.535-5.205 2.901-5.705.368-.5 1.036-1.066 1.036-1.066s1-.6.198-.969c-.798-.367-2.466-1.1-3.535-1.333-1.067-.236-2.301-.535-2.734-.567-.434-.036-.97-.469-2.102.7-1.134 1.166-3.504 4.437-3.97 5.337-.468.902-1.834 4.637-1.967 5.237-.135.601-.335 2.203-.335 2.401 0 .201.067.536.401.835.333.3 1.667 1.867 3.702 2.335 2.036.466 3.302.868 3.77.868.466 0 .534.134.7-1.066" fill="#FFFFFF"/><path d="M125.71 177.428s-2.136-1.735-3.002-3.736c-.869-2.002-1.336-3.838-1.336-4.371 0-.531-.066-1.433.534-2.467.602-1.035 1.97-2.602 2.504-3.137.533-.534 1.866-1.733 2.001-1.869.132-.131.7-.766 2.101-.466s3.235 1.1 3.836 1.601c.6.501 1.435.534-.067 1.968-1.502 1.435-3.236 4.337-3.703 5.106-.465.766-2.035 4.87-2.201 5.672-.167.799-.3 1.3-.333 1.532-.034.233-.334.167-.334.167M125.476 160.332s-.8-.633-1.368-.734c-.567-.102-1.417.1-1.717.3-.3.2-1.585 1.651-1.802 1.935-.217.283-.467.701-.417 1.235.05.535.185 1.769.234 2.018.05.25.25.666.25.666s.15.502.683-.3c.534-.801 1.101-1.532 1.435-1.869.334-.332 1.167-1.1 1.518-1.467.35-.367 1.767-1.366 1.184-1.784M161.169 171.358s.432 3.569-.499 6.704c-.935 3.135-1.735 5.337-1.867 5.904-.136.567-.335 1.202.032 1.402.367.199.867.367 1.368.233.5-.133 1.534-.468 2.468-1.635.934-1.167 1.668-2.067 1.868-3.604.2-1.532.734-5.236.669-6.07-.068-.832.198-2.168-.536-2.568-.733-.4-2.503-.936-2.935-.936-.432 0-.601 0-.568.57M169.954 137.441c2.223 0 5.072.535 6.138.712 1.067.178 2.847.267 2.491 2.226-.357 1.954-.177 4.358-2.757 9.072-2.581 4.715-5.427 9.696-6.493 10.406-1.069.713-.623.893-1.692.624-1.067-.267-3.824-.624-4.715-1.156-.89-.532-4.802-2.58-5.694-3.558-.888-.978-2.311-2.314-2.579-2.759-.265-.443-.532-1.154-.356-1.867.179-.71 1.957-4.981 2.849-6.672.888-1.69 2.133-4.626 2.756-5.25.624-.62 1.512-1.6 2.668-1.688 1.157-.09 7.384-.09 7.384-.09" fill="#FFFFFF"/><path d="M170.488 160.392s4.069-5.706 5.249-7.56c1.245-1.956 2.887-6.124 3.113-6.851.445-1.423.89-4.357.979-4.892.088-.532.179-1.335.979-.623.799.712 1.956 1.867 2.311 2.402.357.534 1.601.89.979 2.67-.622 1.779-1.245 4.445-2.935 7.205-1.69 2.755-4.45 7.383-5.07 8.272-.623.891-.89 1.602-1.779 1.691-.89.09-1.868-.09-2.668-.533-.802-.445-1.603-.89-1.247-1.513.356-.625.089-.268.089-.268M158.746 138.688s-2.492 4.091-3.292 5.96c-.8 1.868-2.133 5.427-2.312 5.96-.176.533.089 1.246-.8 1.069-.892-.18-2.4-.713-4.183-2.137-1.777-1.422-2.845-1.69-2.135-3.648.713-1.956 1.425-3.914 2.224-4.892.802-.978 1.424-2.312 3.292-2.58 1.869-.267 5.783-.712 6.406-.712.622 0 1.333.268.8.98M147.27 139.665s-1.157 2.225-1.6 3.382c-.445 1.156-.89 3.024-1.068 3.469-.179.445-.446.89-.89.535-.444-.357-1.868-.98-3.024-1.782-1.156-.8-1.867-1.778-1.867-1.778s-.358-.356-.18-1.067c.18-.712.979-2.76 1.334-3.292.356-.533 1.246-1.335 2.492-1.244 1.245.088 2.492.443 3.113.532.623.089 1.335.355 1.6.355.269 0 .534.444.09.89M138.641 137.441s-1.157-.622-1.868-.177c-.71.444-1.243 1.335-1.332 1.868-.09.533-.18 1.334-.09 1.602.09.266.266 1.066.711 1.335.444.264.889 1.066 1.246.088.355-.98.978-2.492 1.245-3.025.268-.533.356-.623.444-.89.09-.266-.088-.711-.356-.8" fill="#FFFFFF"/><path d="M92.269 184.172c.479.481.718 1.062.718 1.743 0 .686-.24 1.271-.718 1.755a2.359 2.359 0 01-1.742.725 2.363 2.363 0 01-1.744-.725 2.411 2.411 0 01-.713-1.755c0-.681.238-1.262.717-1.743a2.364 2.364 0 011.74-.725c.68 0 1.262.241 1.742.725zm.285-.277a2.766 2.766 0 00-2.027-.834c-.788 0-1.46.278-2.017.834a2.752 2.752 0 00-.838 2.02c0 .795.276 1.473.83 2.032a2.745 2.745 0 002.025.842c.792 0 1.468-.28 2.027-.842.56-.562.84-1.239.84-2.032 0-.79-.28-1.463-.84-2.02zm-1.603 1.887c-.117.047-.292.07-.526.07h-.499v-1.138h.471c.307 0 .53.04.67.117.139.078.208.231.208.46 0 .242-.108.406-.324.491zm-1.58 1.697h.555v-1.24h.436c.294 0 .5.033.617.101.197.117.296.357.296.721v.25l.011.102a.867.867 0 00.008.035l.009.03h.518l-.02-.038a.534.534 0 01-.027-.163 3.577 3.577 0 01-.008-.235v-.23a.862.862 0 00-.17-.487c-.116-.166-.296-.27-.544-.308.196-.031.347-.083.456-.152.206-.133.31-.34.31-.62 0-.395-.164-.66-.488-.796-.182-.075-.468-.113-.858-.113h-1.1v3.143z" fill="#000000"/></g></svg>